<?xml version="1.0" encoding="utf-8"?>
<!DOCTYPE svg PUBLIC "-//W3C//DTD SVG 1.1//EN" "http://www.w3.org/Graphics/SVG/1.1/DTD/svg11.dtd">
<!-- Generated by geo2svg 2.3.2. https://d3js.org/d3-geo-projection/ -->
<svg version="1.1" xmlns="http://www.w3.org/2000/svg" xmlns:xlink="http://www.w3.org/1999/xlink" width="960" height="500" viewBox="0 400 960 500" fill="none">
  <path id="017010106" fill="#b30000" d="M913.5,586.5L913.4,585.6L916.1,586.4L916.1,586.4L916.2,587.6L916.2,589.1L913.6,589.1Z"></path>
  <path id="017010203" fill="#b30000" d="M909.3,583.1L910.7,583.2L910.7,583.9L910.8,585.8L908.1,585.3Z"></path>
  <path id="031959600" fill="#fee8c8" d="M608.3,462.3L640.1,461.7L687.6,460.7L703.5,460.3L704.9,508.4L685.1,508.9L645.5,509.7L613.8,510.3L609,510.3Z"></path>
  <path id="035011700" fill="#fdd49e" d="M842.6,407.9L842.1,391.8L857.6,391.2L857,376.6L857.2,375.2L877.5,374.4L878.6,375.2L878.6,378.2L880.1,380.1L879.3,384.7L880.1,387.3L882.2,388.8L880.8,390.2L878.9,390.3L878.2,390.4L870.9,390.6L871,393.4L873.7,393.3L873.8,395.9L873.9,398.6L879.2,398.4L879.4,403.7L882.1,403.6L887.8,403.4L888.6,407.3L890.2,408.7L890.9,412.2L889.3,413L891.7,413.8L893.5,415.7L893.9,418.9L896.6,420.3L896.2,422.6L897.4,423.2L897.1,425.7L898.9,428.3L898.9,430.5L899.8,430.9L900.7,434.5L901.6,434.2L902.1,436.9L903.3,437.4L886,438.2L843.7,440Z"></path>
  <path id="053962500" fill="#fee8c8" d="M17.6,378.1L20.3,379.5L22.1,383.6L24.1,382.9L24.5,380.9L26.9,380.5L29.9,382.4L32.6,386.2L36.5,385.2L38.9,383.3L39.7,380.6L40.8,379.3L39.8,376.8L40.9,375.6L44.1,378.5L44,382.2L45.4,382L47.6,379.8L48.8,376.3L48.3,372.2L48.6,370L50.1,367.8L51.8,368.4L54.5,371.5L59.1,368.5L59.4,367.1L55.7,363.6L55.6,361.8L58.8,359L63.1,356.9L64.7,357L67.1,358.6L69,359.1L74.2,355L75,356.8L72.2,358.7L74.4,362.3L76.9,363.7L79.3,363.8L78.9,365.6L74.6,369.8L74.6,371.7L76.4,373.3L81.8,374L82.7,376.3L83.6,378.4L79.7,381.2L79.5,384L80.7,384L83.9,393.9L81.7,394.6L80.6,424.1L83.3,424.2L82.7,440L82,440.9L81.6,453.4L81.8,455.9L83.4,458.4L83.6,463.1L87.5,464.5L88,462.5L90.4,465.3L89.9,467.1L87,467L83.2,467.8L81.4,466L80.8,467.4L77.9,465.1L75.7,466.3L76.2,468.1L73.4,469.3L74.2,470.6L72.6,470.8L72.1,468.6L70,469.7L67.4,468.3L65.9,468.5L66.3,471L64.9,472.9L66.3,473.8L66.8,475.7L63.6,479.1L64.8,481.1L62.6,480.9L61.7,482.8L63.8,484.3L62.3,484.8L62.8,486.4L64.5,486.2L64.4,487.5L66.1,489L64.8,490.1L67.1,491.6L65.4,492.8L67.2,496.3L64.9,498.3L63.4,497L61.7,498.7L62.9,500.8L60.3,503L59.1,503L11.8,500.8L13.6,465.1L15.6,424L16.7,402.7Z"></path>
  <path id="055961000" fill="#fee8c8" d="M234.2,413L285,414L330.1,414.6L356.7,414.9L392.5,415.2L396.5,415.2L444.3,415.5L444.2,447.6L433.4,447.5L433.2,456.9L433.2,479.2L404,479.1L403.9,487.2L380,487L380.2,466.5L374.4,462.9L348.3,462.7L340.6,468.9L338.3,467.1L336.1,467.3L332.9,468.6L330.5,468.4L328.8,469.4L324.1,470.9L320.6,472.4L316.4,473.3L312.6,473.4L307.2,471.5L304.5,471.4L300.2,473L291.3,478.8L288.7,479.2L284.5,477.4L281.4,477.1L277.5,473.7L272.7,470.9L269.2,470.6L265.8,471.2L264.3,470.3L265.4,466.8L263.6,464.3L260.4,464.9L258.7,464L248.3,465.4L245.3,464.8L242.6,463.5L239.5,459.1L237,456.9L235.4,454.2L235.4,448L235.9,444.6L236.1,435.3L233.5,433.2L232.7,430.2L236.5,428.8L236.6,425.2L227.4,421.4L224.6,423.3L222.3,428.2L221,429.2L221.5,412.7Z"></path>
  <path id="057961800" fill="#fee8c8" d="M242.6,463.5L245.3,464.8L248.3,465.4L258.7,464L260.4,464.9L263.6,464.3L265.4,466.8L264.3,470.3L265.8,471.2L269.2,470.6L272.7,470.9L277.5,473.7L281.4,477.1L284.5,477.4L288.7,479.2L291.3,478.8L300.2,473L304.5,471.4L307.2,471.5L312.6,473.4L316.4,473.3L320.6,472.4L324.1,470.9L328.8,469.4L330.5,468.4L332.9,468.6L336.1,467.3L338.3,467.1L340.6,468.9L343.2,472L346.2,474L346.3,475.6L344.3,477.6L340.1,480L337.6,483.1L337.9,486.5L341,490.9L342.1,497L343.1,499.2L345.5,502.4L347.3,503.9L347.7,511.4L348.8,514L349,517.4L352.4,518.2L356.7,520L360.1,522.5L359.9,526.9L299.1,526.1L299.2,515.4L293,515.4L289.5,516.5L283.5,516.5L283.3,519.7L286.2,522.1L289.6,523.7L293.9,523.7L293.8,526.6L296.5,526.1L295.7,574L253.9,573.3L247.8,573.1L248,567.8L249.2,509.2L241.6,509ZM309.8,518.3L310.1,519.9L312.1,519.8L313.1,517.6L315.8,518.6L315.7,516.2L318.2,516.5L318.4,513.1L316.4,513L316.4,510.5L317.3,507.7L316,507.5L316.1,505L310.8,504.9L310.7,510.2L309.9,510.3Z"></path>
  <path id="077970900" fill="#ef6548" d="M950.8,683.6L952,685.1L951.1,689.7L952.5,692.7L952.3,693.9L949,693.8L948.2,694.4L947.9,693.9L947.4,683.8Z"></path>
  <path id="001965600" fill="#fee8c8" d="M136.6,699.4L145.7,699.5L161.7,700L200.1,700.8L199.8,715L211.9,715.4L244.9,716.2L263.5,716.6L262.9,744.6L262.5,764.7L239.6,764.2L191.6,763L171.9,762.4L134.6,761.3L135.4,739.6L136.2,713.2Z"></path>
  <path id="003967900" fill="#fee8c8" d="M770.2,522.3L772.7,522.3L804.6,521.2L805.8,553.4L806.3,569.4L809.4,569.3L811.7,633.6L774.4,634.8L773.9,618.1L773.2,616.3L773.4,612L772.5,605.6L771.5,605L770.7,602.3L770.2,585.8L768.7,583.6L772.8,583.6L772.8,582.1L774.9,581.5L775.4,578.4L770.3,578L768.5,576.8L767.6,574.9L765.7,573.5L763.2,573.6L760.9,572.3L760.2,571L757.5,569.2L756.1,565.6L756.4,563.4L758.8,561.9L760.8,559.3L761.2,556.4L766.1,551.8L767.3,548.8L765.2,547.1L764.2,544.2L765,541.8L767.4,537.7L768.9,536.7L773,531.7L772.7,524.1Z"></path>
  <path id="003968000" fill="#fee8c8" d="M709.3,524.2L725.2,523.7L756.7,522.6L770.2,522.3L772.7,524.1L773,531.7L768.9,536.7L767.4,537.7L765,541.8L764.2,544.2L765.2,547.1L767.3,548.8L766.1,551.8L761.2,556.4L760.8,559.3L758.8,561.9L756.4,563.4L756.1,565.6L757.5,569.2L760.2,571L760.9,572.3L763.2,573.6L765.7,573.5L767.6,574.9L768.5,576.8L770.3,578L767.4,578.9L762.1,578.9L762.3,583.9L764.8,583.9L766.5,583L768.7,583.6L770.2,585.8L770.7,602.3L771.5,605L772.5,605.6L773.4,612L773.2,616.3L773.9,618.1L774.4,634.8L767.2,635L730.1,636L715.9,636.4L714.5,588.2L714.1,572.1L710.6,572.2L709.4,526.8Z"></path>
  <path id="003968200" fill="#fc8d59" d="M767.4,578.9L767.8,581L772.3,580.7L774.9,581.5L772.8,582.1L772.8,583.6L768.7,583.6L766.5,583L764.8,583.9L762.3,583.9L762.1,578.9Z"></path>
  <path id="003968300" fill="#d7301f" d="M767.4,578.9L770.3,578L775.4,578.4L774.9,581.5L772.3,580.7L767.8,581Z"></path>
  <path id="005940100" fill="#fdd49e" d="M608.8,372L609.7,371.9L612.1,374L613.7,370.4L614,371L612.9,376.6L614.1,375.8L615.1,377L616.3,372.8L617.3,373.8L616.2,375.9L616.7,378.2L621.3,378.1L620.2,376.8L620.6,374.3L621.4,376L623.1,376.8L623.6,378.3L625,377.4L631,377.1L631.1,381.7L632.4,381.7L633.6,378.7L636.6,376.2L639.4,376.2L639.2,377.9L641.2,383.2L641,387.4L642.1,386.4L646.6,385L646.4,388.2L649.1,389.2L648.5,389.9L649,413.7L639.5,414L628.2,414L603.7,414.5L599.4,414.6L596.6,411.5L593.6,410.1L592.2,407.9L592.4,404.9L590.1,403.1L607.4,373.1Z"></path>
  <path id="005940200" fill="#fdd49e" d="M646.6,385L648.6,386L650.2,384.3L649.7,382.1L652.5,380.4L652.7,380.5L652.3,381.6L653.6,383.6L654.2,380.7L656.6,378.4L660,376.2L661.2,373.7L664.7,374.6L664.2,376.4L666.1,380.3L666.6,384.8L668.4,385.3L668.6,380.5L669,384.8L670.7,388.2L669.4,389.9L667.1,390.1L665.1,393.2L666,394.1L669.2,390.2L670.3,390.3L672.6,388.6L674,385.3L676.1,384.2L680.3,384.7L681.4,386.2L680.6,388.4L682,392.1L686.4,396.3L685.2,397.4L686.5,400L698.8,400L699.2,412.6L696.8,412.5L667.6,413.2L649,413.7L648.5,389.9L649.1,389.2L646.4,388.2Z"></path>
  <path id="005956500" fill="#fee8c8" d="M534.9,318.6L578.2,318.2L614,317.7L614.7,357.4L615.7,358.6L617.9,358.9L621,360.4L622.2,359.5L626,366L630.8,365.9L631,377.1L625,377.4L623.6,378.3L623.1,376.8L621.4,376L620.6,374.3L620.2,376.8L621.3,378.1L616.7,378.2L616.2,375.9L617.3,373.8L616.3,372.8L615.1,377L614.1,375.8L612.9,376.6L614,371L613.7,370.4L612.1,374L609.7,371.9L608.8,372L609.1,369L559.1,369.6L559,366.9L540.7,367L540.4,367.6L535.1,367.5L535,361.1Z"></path>
  <path id="005956600" fill="#fee8c8" d="M535.1,367.5L540.4,367.6L540.7,367L559,366.9L559.1,369.6L609.1,369L608.8,372L607.4,373.1L590.1,403.1L592.4,404.9L592.2,407.9L593.6,410.1L596.6,411.5L599.4,414.6L574.5,414.9L539.9,415.2L539.7,383.1L535.2,383.1Z"></path>
  <path id="007963100" fill="#fff7ec" d="M59.1,503L60.3,503L66.2,503.4L109.1,505.1L129.9,505.7L138.3,506L137.2,535.5L136.1,570.2L111.2,569.4L110.6,584.7L110.2,595.9L108.8,634L90.6,633.4L61,632.2L61.6,615.9L63.6,567.7L56.4,567.4Z"></path>
  <path id="009952300" fill="#ef6548" d="M458.7,233.4L464,233.4L463.6,238.7L458.7,238.7Z"></path>
  <path id="009952400" fill="#fee8c8" d="M399.3,202.9L445.5,203.1L493.2,203.1L493.3,238.7L493.4,254.8L497.9,254.8L498,286.8L482.1,286.9L466.2,287L466.2,270.9L428.4,270.7L428.7,269.4L426.5,268.7L426.1,267.5L422.5,265L419.7,265.4L417.8,261.1L417.5,257.8L415.4,254.3L414.9,250.2L413,247.9L412,245.6L409.6,244.6L409.4,242.9L407.4,240.2L406.8,237L405.6,236.2L404,231.6L400.5,226.4L399.9,222.4L397.6,214.3L398.1,208.8ZM458.7,233.4L458.7,238.7L463.6,238.7L464,233.4Z"></path>
  <path id="009952500" fill="#fee8c8" d="M334.2,202.3L339,202.4L367,202.7L379.1,202.9L399.3,202.9L398.1,208.8L397.6,214.3L399.9,222.4L400.5,226.4L404,231.6L405.6,236.2L406.8,237L407.4,240.2L409.4,242.9L409.6,244.6L412,245.6L413,247.9L414.9,250.2L415.4,254.3L417.5,257.8L417.8,261.1L419.7,265.4L422.5,265L426.1,267.5L426.5,268.7L428.7,269.4L428.4,270.7L386.6,270.5L386.5,286.6L338.7,286L339.1,253.9L333.5,253.8Z"></path>
  <path id="011965200" fill="#fdbb84" d="M76.6,713.8L80.4,714L80.5,711.3L83.1,711.4L83.3,706L88.7,706.2L88.2,719.7L86.7,721.3L84.7,718.7L82.9,718.1L82.8,721.6L80.2,718.3L80.3,716.6L78.5,716.5L77.5,714Z"></path>
  <path id="011965300" fill="#fee8c8" d="M2.9,694.2L9.4,694.5L43.9,696.1L49.9,696.3L89,697.9L129.7,699.3L136.6,699.4L136.2,713.2L135.4,739.6L134.6,761.3L97.6,760L62.4,758.7L38.8,757.7L0,756L0.3,745.8L1.6,722.8ZM76.6,713.8L77.5,714L78.5,716.5L80.3,716.6L80.2,718.3L82.8,721.6L82.9,718.1L84.7,718.7L86.7,721.3L88.2,719.7L88.7,706.2L83.3,706L83.1,711.4L80.5,711.3L80.4,714Z"></path>
  <path id="013953300" fill="#fee8c8" d="M159.7,198.4L191.5,199.4L223.2,200.3L247.7,201L270.7,201.4L270,236.8L254.1,236.4L253.7,252.4L243.9,252.2L243.1,284.3L232.6,284.1L179.5,282.7L163.6,282.2L164.1,266.1L164.6,250.1L158,249.9L159,217.7Z"></path>
  <path id="015010100" fill="#7f0000" d="M417.6,607.7L417.7,605.6L419.7,605.6L419.6,607.8L419.6,608.3L417.6,608.6Z"></path>
  <path id="015010200" fill="#7f0000" d="M419.7,605.6L419.8,605.6L423,605.2L423,608.3L419.6,607.8Z"></path>
  <path id="015010300" fill="#7f0000" d="M420.4,602.9L421.7,602.9L422.8,603.1L423,605.2L419.8,605.6Z"></path>
  <path id="015010400" fill="#b30000" d="M417.7,602.9L420.4,602.9L419.8,605.6L419.7,605.6L417.7,605.6Z"></path>
  <path id="015010500" fill="#b30000" d="M412.6,604.6L416.2,603L417.7,602.9L417.7,605.6L417.6,607.7L413.6,605.3L412.7,604.6Z"></path>
  <path id="015010600" fill="#d7301f" d="M413.6,605.3L417.6,607.7L417.6,608.6L417.6,612.3L415.9,612.4L414.8,615L412.1,615.9L411.9,614.8L414.5,610.2L414.7,607.7Z"></path>
  <path id="015010700" fill="#b30000" d="M417.6,608.6L419.6,608.3L419.7,611.5L417.6,612.3Z"></path>
  <path id="015010800" fill="#b30000" d="M419.6,608.3L419.6,607.8L423,608.3L422.9,611L421.1,611.7L419.7,611.5Z"></path>
  <path id="015010900" fill="#b30000" d="M421.7,602.9L425.7,602.9L425.7,602.9L425.6,607.9L424.3,609.2L423,608.3L423,605.2L422.8,603.1Z"></path>
  <path id="015011001" fill="#ef6548" d="M420.4,599L420.5,593.7L425,593.7L425.8,594.3L425.7,602.9L421.7,602.9L420.4,602.9Z"></path>
  <path id="015011002" fill="#fdbb84" d="M418.1,574.9L436.7,575L436.5,588.4L433.8,588.4L433.7,601.6L430,601.6L425.7,602.9L425.7,602.9L425.8,594.3L425,593.7L420.5,593.7L420.6,584.5L418.3,577.4Z"></path>
  <path id="015011101" fill="#b30000" d="M417.7,601L417.8,599L420.4,599L420.4,602.9L417.7,602.9Z"></path>
  <path id="015011103" fill="#b30000" d="M412.4,601.7L414,602.1L417.7,601L417.7,602.9L416.2,603L412.6,604.6L411.9,603.8Z"></path>
  <path id="015011104" fill="#d7301f" d="M417.8,599L417.7,601L414,602.1L412.4,601.7L411.2,596.2L417.8,596.3Z"></path>
  <path id="015011105" fill="#fdbb84" d="M399.9,574.9L400.9,573.5L403.3,572.2L405.7,574.8L418.1,574.9L418.3,577.4L420.6,584.5L420.5,593.7L420.4,599L417.8,599L417.8,596.3L411.2,596.2L412.4,601.7L411.9,603.8L408.9,600.1L407.4,596.6L403.9,590.8L403.4,589.1L403.8,586L403.3,580.8L400.2,578.3Z"></path>
  <path id="015011200" fill="#fc8d59" d="M412.1,615.9L414.8,615L415.9,612.4L417.6,612.3L419.7,611.5L421.1,611.7L421.5,615.5L422.9,617L422.9,620.6L423.6,622.7L425.4,623.1L425.8,625.7L428.1,626.2L428.4,628.3L432.2,627.7L436,628.3L436,630.9L432.6,632L429.2,634.5L426.4,635.3L423.9,634.1L424.6,631.5L423.4,628.5L419.6,629.6L418.3,628.7L417.1,624.2L419.6,623.4L419.5,620.4L416.2,620.6L414.6,620.2L412.5,618Z"></path>
  <path id="015011300" fill="#fdbb84" d="M423,608.3L424.3,609.2L425.6,607.9L425.7,602.9L430,601.6L433.7,601.6L433.6,609.8L436.2,609.8L436,628.3L432.2,627.7L428.4,628.3L428.1,626.2L425.8,625.7L425.4,623.1L423.6,622.7L422.9,620.6L422.9,617L421.5,615.5L421.1,611.7L422.9,611Z"></path>
  <path id="015011400" fill="#fee8c8" d="M433.7,601.6L433.8,588.4L436.5,588.4L436.7,575L444.6,575.1L490,575.2L503.3,575.1L508.3,575.2L508.1,612.4L507.9,639.3L486.4,639.4L434.3,639.3L434.6,636.4L436.9,633.5L437.1,631.7L436,630.9L436,628.3L436.2,609.8L433.6,609.8Z"></path>
  <path id="015011500" fill="#fee8c8" d="M396.5,542.8L423.5,542.8L423.6,511.4L433.1,511.4L447.4,511.5L486.4,511.5L503.2,511.4L503.1,536.3L503.2,543L503.3,575.1L490,575.2L444.6,575.1L436.7,575L418.1,574.9L405.7,574.8L403.3,572.2L405,571.2L406.7,569L407.2,564.7L406.5,563L401.4,557.5L399.9,554.4L399.6,548.9L399,546Z"></path>
  <path id="017000100" fill="#b30000" d="M923.1,578.1L923.7,574.1L925.5,572.5L925.2,578L923.9,579.8L924.5,580.8L923.2,580.8Z"></path>
  <path id="017000201" fill="#7f0000" d="M921.4,572.9L921.7,572.8L923.7,574.1L923.1,578.1L922.5,578.1L922.5,574.6Z"></path>
  <path id="017000202" fill="#b30000" d="M921.4,572.9L922.5,574.6L922.5,578.1L921.2,578.2L920.9,572.9Z"></path>
  <path id="017000300" fill="#fc8d59" d="M917.7,565.1L917.4,566.2L919.2,567.4L921,567L920,568.4L921.5,570.4L921.7,572.8L921.4,572.9L920.9,572.9L921.2,578.2L922.5,578.1L921.2,578.9L921.3,580.9L919.2,581L916,579.9L913.2,578.6L912.5,565.3Z"></path>
  <path id="017000400" fill="#7f0000" d="M922.5,578.1L923.1,578.1L923.2,580.8L921.8,580.8L921.3,580.9L921.2,578.9Z"></path>
  <path id="017000501" fill="#7f0000" d="M921.8,580.8L923.2,580.8L924.5,580.8L925.2,581.9L923.6,582.6L922.4,582.5L921.9,582.4Z"></path>
  <path id="017000502" fill="#7f0000" d="M919.2,581L921.3,580.9L921.8,580.8L921.9,582.4Z"></path>
  <path id="017000600" fill="#d7301f" d="M916,579.9L919.2,581L921.9,582.4L922.4,582.5L921.9,583.9L921.4,583.9L918.8,584.8L918.8,586.3L916.1,586.4L916.1,586.4Z"></path>
  <path id="017000700" fill="#7f0000" d="M922.4,582.5L923.6,582.6L924.2,583.8L921.9,583.9Z"></path>
  <path id="017000801" fill="#7f0000" d="M921.4,583.9L921.9,583.9L924.2,583.8L923.3,586.1L921.5,586.2Z"></path>
  <path id="017000802" fill="#7f0000" d="M921.4,583.9L921.5,586.2L920.2,586.2L918.8,586.3L918.8,584.8Z"></path>
  <path id="017000901" fill="#7f0000" d="M920.2,586.2L921.5,586.2L923.3,586.1L923.9,588.6L921.6,588.6L920.3,588.9Z"></path>
  <path id="017000903" fill="#7f0000" d="M916.1,586.4L918.8,586.3L918.9,587.7L916.2,587.6Z"></path>
  <path id="017000904" fill="#7f0000" d="M916.2,587.6L918.9,587.7L918.8,586.3L920.2,586.2L920.3,588.9L918.9,588.9L916.2,589.1Z"></path>
  <path id="017001001" fill="#7f0000" d="M918.9,588.9L920.3,588.9L921.6,588.6L921.6,591.5L919,591.6Z"></path>
  <path id="017001002" fill="#b30000" d="M921.6,588.6L923.9,588.6L924.6,590.2L923.1,589.9L922.3,591.4L921.6,591.5Z"></path>
  <path id="017010107" fill="#ef6548" d="M913.2,578.6L916,579.9L916.1,586.4L913.4,585.6L913.4,583.8L910.7,583.9L910.7,583.2L910.5,580.1Z"></path>
  <path id="017010108" fill="#7f0000" d="M910.8,586.6L913.5,586.5L913.6,589.1L910.9,589.3Z"></path>
  <path id="017010109" fill="#7f0000" d="M910.8,585.8L910.7,583.9L913.4,583.8L913.4,585.6L913.5,586.5L910.8,586.6Z"></path>
  <path id="017010201" fill="#d7301f" d="M909.3,583.1L908.1,585.3L907.9,589L902.8,584.4L899.9,584.3L899.8,582.7Z"></path>
  <path id="017010204" fill="#7f0000" d="M908.1,585.3L910.8,585.8L910.8,586.6L910.9,589.3L907.9,589Z"></path>
  <path id="017010303" fill="#b30000" d="M916.5,591.7L919,591.6L919.2,593.5L919.5,597L916.9,597Z"></path>
  <path id="017010305" fill="#b30000" d="M913.6,589.1L916.2,589.1L918.9,588.9L919,591.6L916.5,591.7L913.7,591.9Z"></path>
  <path id="017010306" fill="#7f0000" d="M919,591.6L921.6,591.5L922.3,591.4L921.9,593.4L919.2,593.5Z"></path>
  <path id="017010307" fill="#d7301f" d="M919.2,593.5L921.9,593.4L921.4,595.4L922.3,596.9L919.5,597Z"></path>
  <path id="017040100" fill="#fee8c8" d="M804.6,521.2L820.6,520.8L836.4,520.2L837.6,548.4L838.3,568.3L841.1,568.2L842.4,600.4L858.3,599.8L859.5,631.8L817.4,633.4L811.7,633.6L809.4,569.3L806.3,569.4L805.8,553.4Z"></path>
  <path id="017040200" fill="#fee8c8" d="M836.4,520.2L854.9,519.5L900.1,517.5L913.8,517L912.7,518.3L914.1,519.2L912.7,519.8L914.4,521.9L913.5,524.7L915.5,526.6L915.5,530.1L916.2,530.4L913.6,533L916.4,537.1L915.4,538.6L917,540.7L916.5,542.4L917.3,546.3L916.1,546.7L916.9,549.2L904.2,549.5L904.4,554.9L901.8,555L902.2,565.7L888.7,566.3L886.3,566.4L885.7,550.3L870.8,551L853.7,551.7L854.3,567.7L841.1,568.2L838.3,568.3L837.6,548.4Z"></path>
  <path id="017040300" fill="#fdd49e" d="M841.1,568.2L854.3,567.7L853.7,551.7L870.8,551L885.7,550.3L886.3,566.4L888.7,566.3L889.1,579.5L883.7,579.8L883.9,582.4L882.5,582.5L882.7,585.2L889.3,584.8L889.9,598.2L881.9,598.7L858.3,599.8L842.4,600.4Z"></path>
  <path id="017040400" fill="#fdd49e" d="M888.7,566.3L902.2,565.7L901.8,555L904.4,554.9L904.2,549.5L916.9,549.2L916.5,550.6L917.5,552.3L916.4,554.8L918,556.1L915.6,557.8L915.6,559.6L917.4,560.3L916.9,563.1L917.7,565.1L912.5,565.3L913.2,578.6L910.5,580.1L910.7,583.2L909.3,583.1L899.8,582.7L899.9,584.3L889.3,584.8L882.7,585.2L882.5,582.5L883.9,582.4L883.7,579.8L889.1,579.5Z"></path>
  <path id="017040500" fill="#fc8d59" d="M889.3,584.8L899.9,584.3L902.8,584.4L907.9,589L910.9,589.3L913.6,589.1L913.7,591.9L916.5,591.7L916.9,597L919.5,597L922.3,596.9L922.5,601.7L924.1,601.4L923.6,602.9L924.8,608.1L924.8,612.8L906.6,613.5L905.8,597.4L889.9,598.2Z"></path>
  <path id="017040600" fill="#fdd49e" d="M858.3,599.8L881.9,598.7L889.9,598.2L905.8,597.4L906.6,613.5L924.8,612.8L923.8,615.3L924.7,616.9L924.4,619.8L923.1,623.2L925,626.9L923.6,628.8L897.4,630.1L862.6,631.7L859.5,631.8Z"></path>
  <path id="019950900" fill="#fc8d59" d="M708.9,240.9L716.9,240.7L717.1,246L709.1,246.3Z"></path>
  <path id="019951100" fill="#fee8c8" d="M636.3,201.2L668.1,200.5L699.8,199.7L732.3,198.8L763.3,197.8L763.5,207.4L763.9,212.6L764.4,231.3L765.1,249.9L767.8,250.1L768.9,282L737.1,283L721.2,283.4L689.3,284.2L654.7,285L641.5,285.2L640.9,253.2L637.3,253.2L636.9,237.2ZM708.9,240.9L709.1,246.3L717.1,246L716.9,240.7Z"></path>
  <path id="021973200" fill="#fdd49e" d="M742.8,699.9L769.1,699.1L772.7,699.1L773.6,731L774.6,763L753.2,763.6L752.9,762L753.7,759.3L753.8,755.9L755.9,749.1L758.2,748.7L756.7,746.7L757.1,743.2L756.2,742.3L756.1,738.9L759.8,733.3L759.4,730.6L759.5,726.8L760.3,724.3L759.9,721.1L759.2,720.8L758.4,716.6L755.2,713.3L753,714.4L750.5,713.8L749.5,712.3L747.1,713.7L745.2,713.1L741.5,708.5L739.4,708.1Z"></path>
  <path id="021973300" fill="#fee8c8" d="M646.6,765.6L646.2,733.5L645.7,702.3L681.2,701.6L726.5,700.4L742.8,699.9L739.4,708.1L741.5,708.5L745.2,713.1L747.1,713.7L749.5,712.3L750.5,713.8L753,714.4L755.2,713.3L758.4,716.6L759.2,720.8L759.9,721.1L760.3,724.3L759.5,726.8L759.4,730.6L759.8,733.3L756.1,738.9L756.2,742.3L757.1,743.2L756.7,746.7L758.2,748.7L755.9,749.1L753.8,755.9L753.7,759.3L752.9,762L753.2,763.6L722.4,764.4ZM705.1,754.9L705.7,755.6L712.1,755.6L713.1,756.8L713,748.5L704.9,748.7Z"></path>
  <path id="021973400" fill="#fdbb84" d="M705.1,754.9L704.9,748.7L713,748.5L713.1,756.8L712.1,755.6L705.7,755.6Z"></path>
  <path id="023954500" fill="#fee8c8" d="M159.7,198.4L159,217.7L158,249.9L164.6,250.1L164.1,266.1L134.9,265.2L97.9,263.8L73.5,262.8L47.9,261.8L22.6,260.6L24.2,221.2L25.5,193.1L32.3,193.5L80.2,195.6L106.9,196.7L109.3,196.7Z"></path>
  <path id="025962200" fill="#fee8c8" d="M171.2,443.3L188.7,443.9L189.6,416.2L191.7,419.5L199.3,424.6L204.3,424.1L207.5,425L210.3,427.6L215.2,428.8L217.3,430.2L221,429.2L222.3,428.2L224.6,423.3L227.4,421.4L236.6,425.2L236.5,428.8L232.7,430.2L233.5,433.2L236.1,435.3L235.9,444.6L235.4,448L235.4,454.2L237,456.9L239.5,459.1L242.6,463.5L241.6,509L249.2,509.2L248,567.8L205.4,566.8L200.1,566.6L199.9,572L159.7,570.9L140.3,570.3L136.1,570.2L137.2,535.5L138.3,506L129.9,505.7L132,442Z"></path>
  <path id="027959200" fill="#fee8c8" d="M603.7,414.5L628.2,414L639.5,414L649,413.7L667.6,413.2L696.8,412.5L699.2,412.6L699.3,418.9L699.7,419.8L699.8,426.1L699.5,426.1L700,444.7L703.1,444.6L703.5,460.3L687.6,460.7L640.1,461.7L608.3,462.3L608.1,446.5L604.2,446.6Z"></path>
  <path id="029966500" fill="#fee8c8" d="M434.3,639.3L486.4,639.4L507.9,639.3L528.8,639.3L528.9,655.7L529.1,703.1L529.2,703.8L534.1,703.8L534.4,766.8L497,766.9L453.3,766.7L453.9,762.5L450.8,756.4L446.9,754.6L445.5,751.9L441,745.4L439.8,740.1L440,735.2L438.6,732.9L438.3,729.9L440.1,725L442.9,720.3L445,718L447.1,713.2L447.4,710.3L445.7,707.9L444.6,704.4L447.3,699.5L448.5,695.6L448.3,689.3L447.2,685.9L443.3,677.4L442.3,673.1L443.8,665.4L444.8,663.1L446.8,661.9L449,659.4L449.2,657.9L443.8,650.5L444.5,649.2L446.5,649.6L447.1,647.9L446.2,646.7L438.9,643.4Z"></path>
  <path id="033962900" fill="#fee8c8" d="M11.8,500.8L59.1,503L56.4,567.4L63.6,567.7L61.6,615.9L61,632.2L36.8,631.2L36.1,647.6L5.1,646.2L7.5,592.8L10.1,538.1L10.8,521.9Z"></path>
  <path id="035010100" fill="#7f0000" d="M882.2,388.8L883.7,391.3L882.5,392.6L881.7,392.9L880.8,390.2Z"></path>
  <path id="035010200" fill="#7f0000" d="M878.9,390.3L880.8,390.2L881.7,392.9L880.3,392.9L879.9,393Z"></path>
  <path id="035010300" fill="#7f0000" d="M878.2,390.4L878.9,390.3L879.9,393L876.9,393.1Z"></path>
  <path id="035010400" fill="#b30000" d="M878.2,390.4L876.9,393.1L873.7,393.3L871,393.4L870.9,390.6Z"></path>
  <path id="035010600" fill="#7f0000" d="M882.5,392.6L883.7,391.3L884.6,393.4L883.2,393.6Z"></path>
  <path id="035010700" fill="#7f0000" d="M880.3,392.9L881.7,392.9L882.5,392.6L883.2,393.6L883.2,394L880.4,394.3Z"></path>
  <path id="035010801" fill="#d7301f" d="M873.7,393.3L876.9,393.1L879.9,393L880.3,392.9L880.4,394.3L880.5,395.6L879.1,395.7L873.8,395.9Z"></path>
  <path id="035010803" fill="#7f0000" d="M879.1,395.7L880.5,395.6L881.8,395.6L881.9,398.2L879.2,398.4Z"></path>
  <path id="035010804" fill="#b30000" d="M873.8,395.9L879.1,395.7L879.2,398.4L873.9,398.6Z"></path>
  <path id="035010900" fill="#b30000" d="M883.2,395L883.2,394L883.2,393.6L884.6,393.4L884.4,396.5L883,396.3Z"></path>
  <path id="035011000" fill="#7f0000" d="M880.4,394.3L883.2,394L883.2,395L881.8,395.6L880.5,395.6Z"></path>
  <path id="035011100" fill="#d7301f" d="M883,396.3L884.4,396.5L885,401.2L887,401.6L887.8,403.4L882.1,403.6L882,400.9L883.1,400.2Z"></path>
  <path id="035011200" fill="#b30000" d="M879.2,398.4L881.9,398.2L881.8,395.6L883.2,395L883,396.3L883.1,400.2L882,400.9L882.1,403.6L879.4,403.7Z"></path>
  <path id="035011400" fill="#fee8c8" d="M774,346.1L779.2,345.9L821.8,344.4L832.5,343.9L867.6,342.7L866.6,344.6L868.3,345.9L867,346.7L867.5,348.5L869.5,348.3L870,349.4L867.4,351.7L870.4,352.8L869,353.1L870.6,356.7L870.5,358.6L872.2,358.9L873.2,360.4L872.3,361.4L873.6,362.3L873.1,364.8L876.8,368.3L877.9,372.9L877.5,374.4L857.2,375.2L857,376.6L857.6,391.2L842.1,391.8L842,389.4L846.9,389.1L846.8,387.6L843.8,387.8L842,388.5L841.9,384.5L841.6,377.2L838.9,375.9L793.6,377.5L791,377.5L790.5,364.3L774.6,364.8Z"></path>
  <path id="035011800" fill="#fee8c8" d="M778.8,410.3L786.8,410L789.4,411.1L790.6,409.9L810.7,409.2L842.6,407.9L843.7,440L830.6,440.5L779.8,442.4L779.2,427.3Z"></path>
  <path id="035011900" fill="#fc8d59" d="M841.9,384.5L842,388.5L843.8,387.8L846.8,387.6L846.9,389.1L842,389.4L842.1,391.8L835.4,392.1L834.6,388.2L836.6,388.1L836.4,380.8L838.4,381.4L839.2,385.3Z"></path>
  <path id="035012000" fill="#fee8c8" d="M774.6,364.8L790.5,364.3L791,377.5L793.6,377.5L838.9,375.9L841.6,377.2L841.9,384.5L839.2,385.3L838.4,381.4L836.4,380.8L836.6,388.1L834.6,388.2L835.4,392.1L842.1,391.8L842.6,407.9L810.7,409.2L790.6,409.9L789.4,411.1L786.8,410L778.8,410.3L777.6,378.1L775,378.2Z"></path>
  <path id="037965900" fill="#fee8c8" d="M252.9,621.8L285.1,622.5L300.7,622.7L300.5,638.7L328.1,639.2L352.3,639.5L353.6,639.6L353.1,687.3L385,687.6L384.8,703.6L387.8,703.7L386.3,705.2L385.3,704L383.6,706.2L379.9,705.3L379.4,708.4L377.8,708.6L376.2,710.9L377.5,711.2L378.1,714.1L375,717.1L374.1,716.5L372.6,718.5L370.7,719.3L369.5,718.7L369.1,720.6L366.5,720.6L365.6,722L366.8,725.9L365.8,726.6L366.6,728.7L363.8,727.1L361.6,730.5L359.2,729.6L358.5,731L357.4,730.3L356.7,731.8L355.6,730.9L352.5,731.3L351,732.7L353.1,734.5L352.5,736.5L350,737.4L349.2,738.9L346.9,739.3L347.6,740.7L344.4,742.7L341.4,741L338.7,742.6L337.7,744.9L336,744.5L332.1,746.4L330.3,745.6L327,747.8L328.5,750.4L326.4,751.3L322.3,749.8L323.1,752.4L320.9,752.5L319.7,753.8L318.1,752.7L318,751L316.5,751.6L314.9,753.6L314.6,752.1L312.4,751.8L311,748.5L308,749.8L308,752.5L303.8,753L301.2,751.2L298.5,750.8L297.6,748.5L296.3,748.3L295.1,749.8L294.7,747.4L292.6,749.4L290.9,747.8L287.6,749.3L285,748L283.3,748.8L282.4,746.7L280.6,745.9L282.8,745.6L282.1,741.3L280.4,742.9L276.2,742L275.7,744.3L274.3,743.2L272.6,743.5L272.8,744.7L270.7,742.4L269.2,743L268.2,745.3L266.7,744.1L266,745.7L263.9,745.8L262.9,744.6L263.5,716.6L263.8,702.2L257.6,702L257.8,688.2L258.3,638L252.6,637.8Z"></path>
  <path id="039968600" fill="#fee8c8" d="M703.5,460.3L703.1,444.6L724.3,444.1L767.1,442.8L767.2,443.9L768.7,495.2L769,506.6L772.2,506.5L772.7,522.3L770.2,522.3L756.7,522.6L725.2,523.7L709.3,524.2L708.9,508.3L704.9,508.4Z"></path>
  <path id="041964700" fill="#fee8c8" d="M200.1,700.8L201.7,700.8L201.7,698.1L208.4,698.2L208.6,691.2L209.9,689.5L210.3,674.2L213,674.2L213.2,663.6L213.5,661.7L216,659.4L216.1,655.6L213.4,655.6L213.8,637.1L252.6,637.8L258.3,638L257.8,688.2L257.6,702L263.8,702.2L263.5,716.6L244.9,716.2L211.9,715.4L199.8,715Z"></path>
  <path id="041964800" fill="#fee8c8" d="M147.3,635.3L151.5,635.4L196.7,636.7L213.8,637.1L213.4,655.6L216.1,655.6L216,659.4L213.5,661.7L213.2,663.6L213,674.2L210.3,674.2L209.9,689.5L208.6,691.2L208.4,698.2L201.7,698.1L201.7,700.8L200.1,700.8L161.7,700L145.7,699.5L146,683.5L146.6,667.4L147,651.8Z"></path>
  <path id="043966800" fill="#fee8c8" d="M503.2,511.4L513.1,511.3L548.5,511.1L582.2,510.7L582.8,558.6L583,574.6L587.4,574.5L587.5,582.7L587.5,594.4L587.8,617.1L587.8,638.9L579,639L561.4,639L549.7,639.2L528.8,639.3L507.9,639.3L508.1,612.4L508.3,575.2L503.3,575.1L503.2,543L503.1,536.3Z"></path>
  <path id="045972100" fill="#fee8c8" d="M730.1,636L767.2,635L767.8,653.7L768.6,683.1L769.1,699.1L742.8,699.9L726.5,700.4L725.7,671L731,670.8Z"></path>
  <path id="045972200" fill="#fee8c8" d="M640.2,638.2L661,637.8L699.9,636.9L715.9,636.4L730.1,636L731,670.8L725.7,671L726.5,700.4L681.2,701.6L645.7,702.3L641.3,702.3L640.9,683.7L640.6,658.8Z"></path>
  <path id="047972500" fill="#fee8c8" d="M528.8,639.3L549.7,639.2L561.4,639L579,639L587.8,638.9L625.5,638.5L640.2,638.2L640.6,658.8L640.9,683.7L641.3,702.3L549.4,703.8L534.1,703.8L529.2,703.8L529.1,703.1L528.9,655.7Z"></path>
  <path id="049955600" fill="#fee8c8" d="M386.3,302.6L386.5,286.6L386.6,270.5L428.4,270.7L466.2,270.9L466.2,287L482.1,286.9L482.2,318.9L487,318.9L487.2,361.9L468.6,362L468.6,359.3L460.5,359.3L460.5,351.3L448.2,351.3L444.7,352.2L444.2,353.9L437.4,353.9L434,355.2L434,353.7L426,353.8L399.4,353.7L391.6,350.4L391.6,343L391.8,318.7L386.2,318.7Z"></path>
  <path id="049955900" fill="#fee8c8" d="M391.6,350.4L399.4,353.7L426,353.8L434,353.7L434,355.2L437.4,353.9L444.2,353.9L444.7,352.2L448.2,351.3L460.5,351.3L460.5,359.3L468.6,359.3L468.6,362L487.2,361.9L487.2,383.3L492.1,383.3L492.2,415.5L470.4,415.6L444.3,415.5L396.5,415.2L396.8,383.1L391.3,383Z"></path>
  <path id="051972900" fill="#fee8c8" d="M534.1,703.8L549.4,703.8L641.3,702.3L645.7,702.3L646.2,733.5L646.6,765.6L614.2,766.1L584.4,766.5L571.7,766.5L551,766.8L534.4,766.8Z"></path>
  <path id="053940100" fill="#fdd49e" d="M201.5,384.3L201.6,385.6L199.7,389.7L196.5,393.6L194.1,395.1L189.7,400.9L188,409.2L188.9,415.1L189.6,416.2L188.7,443.9L171.2,443.3L171.6,427.3L172.9,383.5Z"></path>
  <path id="053962300" fill="#fee8c8" d="M82.7,376.3L84.6,379.1L86.6,379L89.9,375.9L93.8,373.9L99.7,376.2L102.6,375.6L106.8,373.7L110.7,373.9L111.7,373.3L112.5,370.6L114.7,369.8L117.3,370.3L119,367.6L115.7,364.4L117.8,361.4L122.3,356.7L127.8,356.7L134.1,355L135.9,355.7L135.7,358.5L136.6,359L138.6,357.7L143.8,357.3L146,358.1L150.5,357.1L154.7,358.2L155.9,359.9L158.5,360.3L162.6,357.8L163.8,357.7L168.2,360.3L170.9,361.2L173.5,360.8L175.9,359.3L178.5,360.6L179.3,361.9L178.8,364.8L176.7,366.1L179.7,367.2L183.4,367.3L188.3,369.5L187.6,374.3L189.2,376.5L191,376.9L194.9,375.3L196,377L195.9,380.3L196.5,381.8L201.5,384.3L172.9,383.5L171.6,427.3L171.2,443.3L132,442L129.9,505.7L109.1,505.1L66.2,503.4L60.3,503L62.9,500.8L61.7,498.7L63.4,497L64.9,498.3L67.2,496.3L65.4,492.8L67.1,491.6L64.8,490.1L66.1,489L64.4,487.5L64.5,486.2L62.8,486.4L62.3,484.8L63.8,484.3L61.7,482.8L62.6,480.9L64.8,481.1L63.6,479.1L66.8,475.7L66.3,473.8L64.9,472.9L66.3,471L65.9,468.5L67.4,468.3L70,469.7L72.1,468.6L72.6,470.8L74.2,470.6L73.4,469.3L76.2,468.1L75.7,466.3L77.9,465.1L80.8,467.4L81.4,466L83.2,467.8L87,467L89.9,467.1L90.4,465.3L88,462.5L87.5,464.5L83.6,463.1L83.4,458.4L81.8,455.9L81.6,453.4L82,440.9L82.7,440L83.3,424.2L80.6,424.1L81.7,394.6L83.9,393.9L80.7,384L79.5,384L79.7,381.2L83.6,378.4ZM107.4,420L109.9,422.6L112.6,422.6L112.7,420L118,420.2L118.1,414.9L107.6,414.5Z"></path>
  <path id="053962400" fill="#ef6548" d="M107.4,420L107.6,414.5L118.1,414.9L118,420.2L112.7,420L112.6,422.6L109.9,422.6Z"></path>
  <path id="055960800" fill="#fee8c8" d="M340.6,468.9L348.3,462.7L374.4,462.9L380.2,466.5L380,487L403.9,487.2L404,479.1L433.2,479.2L433.1,511.4L423.6,511.4L423.5,542.8L396.5,542.8L394.2,539.6L393,535.6L393,534L395.2,528.5L395,525.6L391.9,521.6L387.6,518.6L384.7,517.5L381.3,516.9L376.9,517.5L374,518.8L369.6,519.7L367.8,525.6L365.2,525.6L360.1,522.5L356.7,520L352.4,518.2L349,517.4L348.8,514L347.7,511.4L347.3,503.9L345.5,502.4L343.1,499.2L342.1,497L341,490.9L337.9,486.5L337.6,483.1L340.1,480L344.3,477.6L346.3,475.6L346.2,474L343.2,472Z"></path>
  <path id="057961600" fill="#fc8d59" d="M309.8,518.3L309.9,510.3L310.7,510.2L310.8,504.9L316.1,505L316,507.5L317.3,507.7L316.4,510.5L316.4,513L318.4,513.1L318.2,516.5L315.7,516.2L315.8,518.6L313.1,517.6L312.1,519.8L310.1,519.9Z"></path>
  <path id="057961700" fill="#fdbb84" d="M299.1,526.1L296.5,526.1L293.8,526.6L293.9,523.7L289.6,523.7L286.2,522.1L283.3,519.7L283.5,516.5L289.5,516.5L293,515.4L299.2,515.4Z"></path>
  <path id="059020100" fill="#b30000" d="M410.4,603.9L408.9,603.2L402.9,604.2L402.6,603L405.5,603L405.2,601L408.3,601.8Z"></path>
  <path id="059020200" fill="#fdbb84" d="M403.8,586L403.4,589.1L403.9,590.8L407.4,596.6L408.9,600.1L411.9,603.8L412.6,604.6L412.7,604.6L410.4,603.9L408.3,601.8L405.2,601L405.5,603L402.6,603L402.9,604.2L401.3,604.3L396.1,602.7L393.6,601.9L390.1,600L390.7,597.4L390.7,589.7L391.2,587.6L390.8,580.8L396.3,580.7L397.8,582.9L397.8,585.1L399.6,587L400,586Z"></path>
  <path id="059020300" fill="#fc8d59" d="M396.1,602.7L401.3,604.3L402.9,604.2L408.9,603.2L410.4,603.9L412.7,604.6L413.6,605.3L414.7,607.7L414.5,610.2L411.9,614.8L412.1,615.9L412.5,618L414.6,620.2L416.2,620.6L407,620.4L406.8,618L407.8,615.3L396.1,615.5L395.9,608.9Z"></path>
  <path id="059020400" fill="#fee8c8" d="M356.3,574.8L399.9,574.9L400.2,578.3L403.3,580.8L403.8,586L400,586L399.6,587L397.8,585.1L397.8,582.9L396.3,580.7L390.8,580.8L391.2,587.6L390.7,589.7L390.7,597.4L390.1,600L393.6,601.9L396.1,602.7L395.9,608.9L396.1,615.5L407.8,615.3L406.8,618L407,620.4L416.2,620.6L419.5,620.4L419.6,623.4L417.1,624.2L418.3,628.7L419.6,629.6L423.4,628.5L424.6,631.5L423.9,634.1L426.4,635.3L429.2,634.5L432.6,632L436,630.9L437.1,631.7L436.9,633.5L434.6,636.4L434.3,639.3L438.9,643.4L446.2,646.7L447.1,647.9L446.5,649.6L444.5,649.2L443.8,650.5L449.2,657.9L449,659.4L446.8,661.9L444.8,663.1L443.8,665.4L442.3,673.1L443.3,677.4L440.6,677.5L440.9,679.4L438.9,677.8L438.6,679L433.7,681.4L432.6,680.2L431.1,680.7L430.4,682.9L428.1,683.8L428.5,685L426.4,686L426.6,684.3L424.6,684.1L424,682.4L423.2,683.8L420.5,682.9L419.9,684L415.9,684.5L414.7,685.3L409.8,683.3L409.2,682L407.9,684.4L406.1,683.9L406.5,680.8L404.3,681.8L404.5,683.2L401.5,683.3L400.2,686.5L398.8,687L398.2,689.6L398.6,691.6L396.1,692L396.5,693.4L393.7,695.3L393.1,697.3L391.7,697.9L389.8,696.5L388.9,697.2L389.3,699.4L391.4,699.9L390.3,701.4L388.9,700.9L387.8,703.7L384.8,703.6L385,687.6L353.1,687.3L353.6,639.6L352.3,639.5L352.3,634.9L352.8,634.2L356,634.2L356.3,633.4L356.2,607.5Z"></path>
  <path id="059020500" fill="#fee8c8" d="M253.9,573.3L295.7,574L309.4,574.2L356.3,574.8L356.2,607.5L356.3,633.4L356,634.2L352.8,634.2L352.3,634.9L352.3,639.5L328.1,639.2L300.5,638.7L300.7,622.7L285.1,622.5L252.9,621.8L253.8,573.4Z"></path>
  <path id="061940300" fill="#fee8c8" d="M239.8,385.2L269.7,386L285.6,386.2L285,414L234.2,413L233,411.2L232.4,408L231.2,406.5L231.9,402L230.5,400.5L231.5,397.7L234.2,393.1L233.8,390.5L235.4,389.8L236.6,386.9Z"></path>
  <path id="061940400" fill="#fdd49e" d="M201.5,384.3L238,385.2L239.8,385.2L236.6,386.9L235.4,389.8L233.8,390.5L234.2,393.1L231.5,397.7L230.5,400.5L231.9,402L231.2,406.5L232.4,408L233,411.2L234.2,413L221.5,412.7L221,429.2L217.3,430.2L215.2,428.8L210.3,427.6L207.5,425L204.3,424.1L199.3,424.6L191.7,419.5L189.6,416.2L188.9,415.1L188,409.2L189.7,400.9L194.1,395.1L196.5,393.6L199.7,389.7L201.6,385.6Z"></path>
  <path id="061955200" fill="#fee8c8" d="M163.6,282.2L179.5,282.7L232.6,284.1L243.1,284.3L269.4,284.8L274.9,284.8L274.3,317.1L280.6,317.2L280.4,325.5L279.4,381.5L285.6,381.6L285.6,386.2L269.7,386L239.8,385.2L238,385.2L201.5,384.3L196.5,381.8L195.9,380.3L196,377L194.9,375.3L191,376.9L189.2,376.5L187.6,374.3L188.3,369.5L183.4,367.3L179.7,367.2L176.7,366.1L178.8,364.8L179.3,361.9L178.5,360.6L175.9,359.3L173.5,360.8L170.9,361.2L168.2,360.3L169.6,314.3L162.6,314.2Z"></path>
  <path id="063959000" fill="#fee8c8" d="M699.2,412.6L698.8,400L698.3,380.4L710.8,380.1L711,379.7L710.2,348.1L726.2,347.5L758.6,346.6L774,346.1L774.6,364.8L775,378.2L777.6,378.1L778.8,410.3L779.2,427.3L779.8,442.4L767.1,442.8L724.3,444.1L703.1,444.6L700,444.7L699.5,426.1L699.8,426.1L699.7,419.8L699.3,418.9Z"></path>
  <path id="065961200" fill="#fee8c8" d="M296.5,526.1L299.1,526.1L359.9,526.9L360.1,522.5L365.2,525.6L367.8,525.6L369.6,519.7L374,518.8L376.9,517.5L381.3,516.9L384.7,517.5L387.6,518.6L391.9,521.6L395,525.6L395.2,528.5L393,534L393,535.6L394.2,539.6L396.5,542.8L399,546L399.6,548.9L399.9,554.4L401.4,557.5L406.5,563L407.2,564.7L406.7,569L405,571.2L403.3,572.2L400.9,573.5L399.9,574.9L356.3,574.8L309.4,574.2L295.7,574Z"></path>
  <path id="067950100" fill="#fee8c8" d="M810.8,196.1L850.5,194.5L850.8,195.9L849.5,197.8L849.7,201L850.7,201.2L850.3,204.3L851.2,204.6L852.2,208.9L853.3,209.9L853.8,212.4L856.1,213.8L854.6,214.4L855.1,216.5L857.4,217L856.3,219.5L857.6,219.6L858.5,224.1L857.2,225.1L858.1,226.6L856.6,228.4L860.5,229.1L859.1,232.6L860.8,233.4L858.9,233.1L812.4,234.8L812.3,232.2Z"></path>
  <path id="067950200" fill="#fee8c8" d="M763.3,197.8L810.8,196.1L812.3,232.2L806.9,232.4L801.6,232.5L791,233L791,230.3L780.4,230.7L777.6,231L764.4,231.3L763.9,212.6L763.5,207.4Z"></path>
  <path id="067950300" fill="#fc8d59" d="M801.6,232.5L806.9,232.4L807,237.7L801.8,237.9Z"></path>
  <path id="067950400" fill="#fee8c8" d="M764.4,231.3L777.6,231L780.4,230.7L791,230.3L791,233L801.6,232.5L801.8,237.9L807,237.7L806.9,232.4L812.3,232.2L812.4,234.8L812.8,248.4L814,280.4L782.1,281.6L768.9,282L767.8,250.1L765.1,249.9Z"></path>
  <path id="067950500" fill="#fee8c8" d="M812.4,234.8L858.9,233.1L860.8,233.4L862,234.9L860.9,235.3L862.4,237.4L861.4,238.9L863.5,240.1L863.1,242.5L864.6,243.1L863.8,244.6L867.3,247.8L866,248.6L867.4,250.8L869.6,251.7L868.5,252.7L868.8,254.5L867.8,256L868.9,256.7L867.1,259.5L867.5,262.1L865.4,262.4L866.7,263.7L864.9,263.7L865.6,265.3L863,269L864.2,270.9L862.4,271.2L863.5,272.1L863.3,273.9L861,274.4L861.7,275.9L864.1,275.7L864.7,276.8L861.7,277.3L862.3,278.5L830.1,279.8L814,280.4L812.8,248.4Z"></path>
  <path id="069956100" fill="#fee8c8" d="M482.1,286.9L498,286.8L529.9,286.6L577.7,286.1L578.2,318.2L534.9,318.6L518.9,318.8L517.5,320L515.1,318.8L487,318.9L482.2,318.9Z"></path>
  <path id="069956200" fill="#fee8c8" d="M487,318.9L515.1,318.8L517.5,320L518.9,318.8L534.9,318.6L535,361.1L535.1,367.5L535.2,383.1L539.7,383.1L539.9,415.2L521.3,415.3L508.1,415.4L492.2,415.5L492.1,383.3L487.2,383.3L487.2,361.9Z"></path>
  <path id="071957600" fill="#ef6548" d="M658.7,363.5L660.1,363.5L660.1,365.3L662.8,365.3L662.7,367.8L661,369.3L658.8,369.4L654.9,368.4L656.2,366.2L656.1,364.1Z"></path>
  <path id="071957700" fill="#fee8c8" d="M614,317.7L642.1,317.2L641.5,285.2L654.7,285L689.3,284.2L721.2,283.4L722,315.5L725.3,315.4L726.2,347.5L710.2,348.1L711,379.7L710.8,380.1L698.3,380.4L698.8,400L686.5,400L685.2,397.4L686.4,396.3L682,392.1L680.6,388.4L681.4,386.2L680.3,384.7L676.1,384.2L674,385.3L672.6,388.6L670.3,390.3L669.2,390.2L666,394.1L665.1,393.2L667.1,390.1L669.4,389.9L670.7,388.2L669,384.8L668.6,380.5L668.4,385.3L666.6,384.8L666.1,380.3L664.2,376.4L664.7,374.6L661.2,373.7L660,376.2L656.6,378.4L654.2,380.7L653.6,383.6L652.3,381.6L652.7,380.5L653.4,376.4L653,374.6L653.8,372.5L657.9,372L658.8,369.4L661,369.3L662.7,367.8L662.8,365.3L660.1,365.3L660.1,363.5L658.7,363.5L658.6,357.3L654.6,357.4L654.7,362.5L652,360.9L652,362.8L646.7,362.9L646.8,366.7L651.3,367.3L648.7,368.1L647.6,374.3L649.9,376.7L652.8,378.7L652.5,380.4L649.7,382.1L650.2,384.3L648.6,386L646.6,385L642.1,386.4L641,387.4L641.2,383.2L639.2,377.9L639.4,376.2L636.6,376.2L633.6,378.7L632.4,381.7L631.1,381.7L631,377.1L630.8,365.9L626,366L622.2,359.5L621,360.4L617.9,358.9L615.7,358.6L614.7,357.4Z"></path>
  <path id="071957800" fill="#fc8d59" d="M658.7,363.5L656.1,364.1L656.2,366.2L654.9,368.4L658.8,369.4L657.9,372L653.8,372.5L653,374.6L653.4,376.4L652.7,380.5L652.5,380.4L652.8,378.7L649.9,376.7L647.6,374.3L648.7,368.1L651.3,367.3L646.8,366.7L646.7,362.9L652,362.8L652,360.9L654.7,362.5L654.6,357.4L658.6,357.3Z"></path>
  <path id="073968900" fill="#fee8c8" d="M817.4,633.4L859.5,631.8L862.6,631.7L864,666.3L865.2,695.7L838.7,696.7L838.5,696.7L838.3,691.4L835.6,691.5L835.3,683.4L837.9,683.3L837.7,678L835.1,678.1L834.9,672.7L832.3,672.8L831.6,654.1L826.3,654.3L825.7,641L819.1,641.2L818.8,635.9L817.5,635.9Z"></path>
  <path id="073969000" fill="#fee8c8" d="M767.2,635L774.4,634.8L811.7,633.6L817.4,633.4L817.5,635.9L818.8,635.9L819.1,641.2L825.7,641L826.3,654.3L831.6,654.1L832.3,672.8L834.9,672.7L835.1,678.1L837.7,678L837.9,683.3L835.3,683.4L835.6,691.5L838.3,691.4L838.5,696.7L817.1,697.6L785.1,698.7L772.7,699.1L769.1,699.1L768.6,683.1L767.8,653.7ZM807.8,665.8L808.1,668.4L810.8,668.4L811,674.3L813,675L816.3,674.8L815.9,665.5L813.3,665.6L813,666.9L808.8,665.2Z"></path>
  <path id="073969100" fill="#fc8d59" d="M807.8,665.8L808.8,665.2L813,666.9L813.3,665.6L815.9,665.5L816.3,674.8L813,675L811,674.3L810.8,668.4L808.1,668.4Z"></path>
  <path id="075952900" fill="#fee8c8" d="M270.7,201.4L318.6,202.2L334.2,202.3L333.5,253.8L339.1,253.9L338.7,286L386.5,286.6L386.3,302.6L354.4,302.3L321.3,301.8L290.7,301.2L290.7,291.9L291.5,253.2L269.7,252.8L270,236.8Z"></path>
  <path id="077970700" fill="#fee8c8" d="M862.6,631.7L897.4,630.1L923.6,628.8L926.1,629.3L926.3,632.8L927.4,635L929.3,635.1L929.4,638.8L930.8,639.4L930.4,644.4L932.1,647.7L933.2,655.6L935.8,661.6L935,661.6L937.3,663.9L937.6,666L937.1,665.6L903.9,667.2L903.7,664.6L864,666.3Z"></path>
  <path id="077970800" fill="#fee8c8" d="M864,666.3L903.7,664.6L903.9,667.2L937.1,665.6L937.6,666L938.7,666.5L941.6,671.3L942.6,675.1L945.6,677.2L945.5,679.3L947.5,678.6L949.2,680.1L948.7,680.9L951.5,683L950.8,683.6L947.4,683.8L947.9,693.9L948.2,694.4L950.1,695.7L922.3,696.9L897.1,698.1L897.3,702.2L884.1,702.9L868.3,703.6L867.9,695.5L865.2,695.7Z"></path>
  <path id="077971000" fill="#d7301f" d="M948.2,694.4L949,693.8L952.3,693.9L952.1,695.4L954.1,697.9L952.5,699.5L950.2,699.7L950.1,695.7Z"></path>
  <path id="077971100" fill="#fee8c8" d="M922.3,696.9L950.1,695.7L950.2,699.7L952.5,699.5L953.7,705.2L954.7,705.2L954.6,710.1L956.1,714.1L955.6,715.7L957.3,719.1L957.7,722.3L958.8,724.1L959.6,727.9L959.4,731.5L957.1,738.6L957.7,740.5L958.7,750.2L960,753.5L959.8,755.4L929.6,756.8L924.2,756.1L924.7,754.3L923.6,730.3L923.1,714.3Z"></path>
  <path id="077971400" fill="#fee8c8" d="M868.3,703.6L884.1,702.9L897.3,702.2L897.1,698.1L922.3,696.9L923.1,714.3L923.6,730.3L924.7,754.3L924.2,756.1L929.6,756.8L890.6,758.5L874.6,759.4L874.1,748.8L870.1,748.2Z"></path>
  <path id="079941800" fill="#fdbb84" d="M556.7,222.3L557,222.3L557.1,238.3L525.3,238.6L525.1,222.6Z"></path>
  <path id="079951600" fill="#fdd49e" d="M556.6,202.6L572.7,202.4L573.1,238.2L557.1,238.3L557,222.3L556.7,222.3L557,222.1L556.8,203.1Z"></path>
  <path id="079951700" fill="#fdd49e" d="M493.2,203.1L525.7,202.9L556.6,202.6L556.8,203.1L557,222.1L556.7,222.3L525.1,222.6L525.3,238.6L525.3,241.2L504,241.4L503.9,238.7L493.3,238.7Z"></path>
  <path id="079951900" fill="#fee8c8" d="M493.3,238.7L503.9,238.7L504,241.4L525.3,241.2L525.3,238.6L557.1,238.3L573.1,238.2L573.3,254.2L577.3,254.1L577.7,286.1L529.9,286.6L498,286.8L497.9,254.8L493.4,254.8Z"></path>
  <path id="081974000" fill="#fee8c8" d="M772.7,699.1L785.1,698.7L817.1,697.6L838.5,696.7L838.7,696.7L838.9,702L836.6,702L837.1,720.7L834.5,720.8L834.4,718.1L831.7,718.3L831.8,720.9L815.8,721.5L816.3,734.8L800.4,735.4L800.5,738.1L797.8,738.1L797.7,735.5L787,735.9L786.8,730.5L773.6,731Z"></path>
  <path id="081974200" fill="#fee8c8" d="M773.6,731L786.8,730.5L787,735.9L797.7,735.5L797.8,738.1L800.5,738.1L800.4,735.4L816.3,734.8L815.8,721.5L831.8,720.9L831.7,718.3L834.4,718.1L834.5,720.8L837.1,720.7L836.6,702L838.9,702L838.7,696.7L865.2,695.7L867.9,695.5L868.3,703.6L870.1,748.2L874.1,748.8L874.6,759.4L840.8,760.8L804.2,762.1L774.6,763Z"></path>
  <path id="083960200" fill="#fee8c8" d="M444.3,415.5L470.4,415.6L492.2,415.5L508.1,415.4L508.3,447.5L512.8,447.4L513.1,511.3L503.2,511.4L486.4,511.5L447.4,511.5L433.1,511.4L433.2,479.2L433.2,456.9L433.4,447.5L444.2,447.6Z"></path>
  <path id="085940800" fill="#fee8c8" d="M262.9,744.6L263.9,745.8L266,745.7L266.7,744.1L268.2,745.3L269.2,743L270.7,742.4L272.8,744.7L272.6,743.5L274.3,743.2L275.7,744.3L276.2,742L280.4,742.9L282.1,741.3L282.8,745.6L280.6,745.9L282.4,746.7L283.3,748.8L285,748L287.6,749.3L290.9,747.8L292.6,749.4L294.7,747.4L295.1,749.8L296.3,748.3L297.6,748.5L298.5,750.8L301.2,751.2L303.8,753L308,752.5L308,749.8L311,748.5L312.4,751.8L314.6,752.1L314.9,753.6L316.5,751.6L318,751L318.1,752.7L319.7,753.8L320.9,752.5L323.1,752.4L322.3,749.8L326.4,751.3L328.5,750.4L327,747.8L330.3,745.6L332.1,746.4L336,744.5L337.7,744.9L338.7,742.6L341.4,741L344.4,742.7L347.6,740.7L346.9,739.3L349.2,738.9L350,737.4L352.5,736.5L353.1,734.5L351,732.7L352.5,731.3L355.6,730.9L356.7,731.8L357.4,730.3L358.5,731L359.2,729.6L361.6,730.5L363.8,727.1L366.6,728.7L365.8,726.6L366.8,725.9L365.6,722L366.5,720.6L369.1,720.6L369.5,718.7L370.7,719.3L372.6,718.5L374.1,716.5L375,717.1L378.1,714.1L377.5,711.2L376.2,710.9L377.8,708.6L379.4,708.4L379.9,705.3L383.6,706.2L385.3,704L386.3,705.2L387.8,703.7L388.9,700.9L390.3,701.4L391.4,699.9L389.3,699.4L388.9,697.2L389.8,696.5L391.7,697.9L393.1,697.3L393.7,695.3L396.5,693.4L396.1,692L398.6,691.6L398.2,689.6L398.8,687L400.2,686.5L401.5,683.3L404.5,683.2L404.3,681.8L406.5,680.8L406.1,683.9L407.9,684.4L409.2,682L409.8,683.3L414.7,685.3L415.9,684.5L419.9,684L420.5,682.9L423.2,683.8L424,682.4L424.6,684.1L426.6,684.3L426.4,686L428.5,685L428.1,683.8L430.4,682.9L431.1,680.7L432.6,680.2L433.7,681.4L438.6,679L438.9,677.8L440.9,679.4L440.6,677.5L443.3,677.4L447.2,685.9L448.3,689.3L448.5,695.6L447.3,699.5L444.6,704.4L445.7,707.9L416.8,707.9L406.7,708.3L406.7,721.2L406.5,734.6L406.6,743.1L406.4,766.6L377.6,766.4L355.8,766.2L336.8,766L297.8,765.4L262.5,764.7Z"></path>
  <path id="085940900" fill="#fee8c8" d="M445.7,707.9L447.4,710.3L447.1,713.2L445,718L442.9,720.3L440.1,725L438.3,729.9L438.6,732.9L440,735.2L439.8,740.1L441,745.4L445.5,751.9L446.9,754.6L450.8,756.4L453.9,762.5L453.3,766.7L422.7,766.7L406.4,766.6L406.6,743.1L406.5,734.6L406.7,721.2L406.7,708.3L416.8,707.9Z"></path>
  <path id="087965000" fill="#fff7ec" d="M5.1,646.2L36.1,647.6L36.8,631.2L61,632.2L90.6,633.4L108.8,634L147.3,635.3L147,651.8L146.6,667.4L146,683.5L145.7,699.5L136.6,699.4L129.7,699.3L89,697.9L49.9,696.3L43.9,696.1L9.4,694.5L2.9,694.2L3.6,675.1Z"></path>
  <path id="089963300" fill="#fee8c8" d="M205.4,566.8L248,567.8L247.8,573.1L253.9,573.3L253.8,573.4L252.9,621.8L252.6,637.8L213.8,637.1L196.7,636.7L197,620.6L199.6,620.7L200,604.7L201.4,604.7L201.6,595.4L202.9,595.4L203.6,572.1L205.3,572.1Z"></path>
  <path id="089963400" fill="#ef6548" d="M166.4,582.4L171.7,582.6L171.5,587.7L174.2,588.4L173.6,591.9L171.3,590.7L168.8,590.3L168.9,587.8L166.2,587.8Z"></path>
  <path id="089963500" fill="#d7301f" d="M166.4,582.4L166.2,587.8L166.2,588.1L163.5,588.3L163.5,590.3L160.8,591L161,582.3Z"></path>
  <path id="089963600" fill="#b30000" d="M166.2,588.1L166.1,590L163.5,590.3L163.5,588.3Z"></path>
  <path id="089963700" fill="#7f0000" d="M166.2,588.1L166.2,587.8L168.9,587.8L168.8,590.3L166.1,590Z"></path>
  <path id="089963800" fill="#ef6548" d="M160.8,591L163.5,590.3L166.1,590L168.8,590.3L171.3,590.7L173.6,591.9L173.2,593.6L171.3,594.1L171.2,597.4L167.2,597.3L163.3,596.4L163.4,593Z"></path>
  <path id="089963900" fill="#fee8c8" d="M140.3,570.3L159.7,570.9L199.9,572L200.1,566.6L205.4,566.8L205.3,572.1L203.6,572.1L202.9,595.4L201.6,595.4L201.4,604.7L200,604.7L199.6,620.7L197,620.6L196.7,636.7L151.5,635.4L151.9,624.7L143.9,624.4L144.3,611.6L143,610.9L143.1,608.4L141.7,608.3L142.3,592L144.1,592.1L141.9,590L139.7,590.2ZM160.8,591L163.4,593L163.3,596.4L167.2,597.3L171.2,597.4L171.3,594.1L173.2,593.6L173.6,591.9L174.2,588.4L171.5,587.7L171.7,582.6L166.4,582.4L161,582.3Z"></path>
  <path id="089964000" fill="#fee8c8" d="M136.1,570.2L140.3,570.3L139.7,590.2L141.9,590L144.1,592.1L142.3,592L141.7,608.3L143.1,608.4L143,610.9L144.3,611.6L143.9,624.4L151.9,624.7L151.5,635.4L147.3,635.3L108.8,634L110.2,595.9L110.6,584.7L111.2,569.4Z"></path>
  <path id="091968700" fill="#fee8c8" d="M767.1,442.8L779.8,442.4L830.6,440.5L831.7,469.8L833,504.5L835.8,504.5L836.4,520.2L820.6,520.8L804.6,521.2L772.7,522.3L772.2,506.5L769,506.6L768.7,495.2L767.2,443.9Z"></path>
  <path id="093967000" fill="#fee8c8" d="M582.2,510.7L609,510.3L613.8,510.3L645.5,509.7L685.1,508.9L704.9,508.4L708.9,508.3L709.3,524.2L709.4,526.8L710.6,572.2L714.1,572.1L714.5,588.2L687.9,588.9L687.6,578.3L682.4,578.4L681.3,578.9L680.8,581.9L679.9,581.9L679.4,578.5L671.8,578.6L671.9,584L645.3,584.4L627.3,585L627.2,582.3L620.5,582.4L615.3,582.2L611.3,582.5L611.2,577.5L605.9,577.5L606,582.5L587.5,582.7L587.4,574.5L583,574.6L582.8,558.6Z"></path>
  <path id="093967200" fill="#fee8c8" d="M587.5,582.7L606,582.5L605.9,577.5L611.2,577.5L611.3,582.5L615.3,582.2L620.5,582.4L627.2,582.3L627.3,585L645.3,584.4L671.9,584L672.1,592L679.9,591.8L682.8,591.8L685.4,591.7L685.1,589.3L687.9,588.9L714.5,588.2L715.9,636.4L699.9,636.9L661,637.8L640.2,638.2L625.5,638.5L587.8,638.9L587.8,617.1L587.5,594.4Z"></path>
  <path id="093967300" fill="#fc8d59" d="M682.4,578.4L687.6,578.3L687.9,588.9L685.1,589.3L685.4,591.7L682.8,591.8L683.2,590L682.6,586.5Z"></path>
  <path id="093967400" fill="#b30000" d="M679.9,581.9L680.8,581.9L681.3,578.9L682.4,578.4L682.6,586.5L680,586Z"></path>
  <path id="093967500" fill="#fc8d59" d="M679.9,581.9L680,586L679.3,590L679.9,591.8L672.1,592L671.9,584L671.8,578.6L679.4,578.5Z"></path>
  <path id="093967800" fill="#d7301f" d="M680,586L682.6,586.5L683.2,590L682.8,591.8L679.9,591.8L679.3,590Z"></path>
  <path id="095951500" fill="#fee8c8" d="M573.1,238.2L572.7,202.4L590.8,202.1L636.3,201.2L636.9,237.2L637.3,253.2L640.9,253.2L641.5,285.2L642.1,317.2L614,317.7L578.2,318.2L577.7,286.1L577.3,254.1L573.3,254.2Z"></path>
  <path id="097970100" fill="#fee8c8" d="M830.6,440.5L843.7,440L886,438.2L903.3,437.4L903.4,443.6L905.4,447.9L907.6,448.5L908.5,451.9L908.3,454.2L907,456.2L907.4,458L908.9,458.9L907.4,461.5L908.6,462.3L906.7,463.7L908.8,466.2L909.3,468.9L908.6,469.3L863.5,471.3L852.8,471.7L852.7,469.1L844.8,469.3L844.6,470.4L840.2,471.7L837.5,469.6L831.7,469.8Z"></path>
  <path id="097970200" fill="#fc8d59" d="M852.8,471.7L852.7,474.4L842.4,474.8L842.3,472.1L840.2,471.7L844.6,470.4L844.8,469.3L852.7,469.1Z"></path>
  <path id="097970300" fill="#fee8c8" d="M831.7,469.8L837.5,469.6L840.2,471.7L842.3,472.1L842.4,474.8L852.7,474.4L852.8,471.7L863.5,471.3L908.6,469.3L909.3,468.9L907.6,470.5L909.1,471.2L907.3,472.8L909.3,472.6L908.3,474L909.2,476.3L908.2,477.1L909.6,481.5L909.3,482.9L907.6,483.7L911.6,487.3L911.9,490.5L910,492.4L911.1,496.6L913.2,498.5L912.8,502.1L911.4,502.8L913.5,504.6L912,507L913.1,511.3L911.9,512.9L913,513.7L913.8,517L900.1,517.5L854.9,519.5L836.4,520.2L835.8,504.5L833,504.5ZM882.3,488.3L882.7,489.2L888.1,488.9L888,486.3L889.3,486.3L889.1,482.7L885.1,483.1L884.6,485.1L882.6,485.2Z"></path>
  <path id="097970400" fill="#fc8d59" d="M882.3,488.3L882.6,485.2L884.6,485.1L885.1,483.1L889.1,482.7L889.3,486.3L888,486.3L888.1,488.9L882.7,489.2Z"></path>
  <path id="099957800" fill="#fee8c8" d="M831,306.5L833.9,306.4L838.6,306.2L838.5,302.2L839.7,300.8L837,299.6L837,298.3L831.9,298.5L830.6,293.2L830.1,279.8L862.3,278.5L864.7,279.5L863.4,280.9L863.8,282.7L866.6,282.9L864,284.1L864.1,285.9L866.3,287.6L865.4,289.1L862.8,290.1L866.9,294.7L864.5,297.2L867.4,296.7L867.7,298.4L865.2,298.7L867.5,300.3L867.7,301.6L865.5,301.4L867.1,303.4L865.1,305.3L863.4,305.8L864.1,307.4L865.7,308.1L866.4,310.1L864.5,310.3L864.5,311.4L866.9,313.4L866.6,315L868.3,316L867.4,317.9L869.6,318.9L867.5,319.7L867,320.9L869,321.2L868.5,322.2L870.2,323.4L868.3,323.3L867.5,325.5L869.2,324.8L869.9,326.7L868.9,328.5L866.7,329.4L869.1,329.7L869.1,332.2L866.8,333.1L867.9,334L867.1,335.8L869.4,336.2L867.4,337.5L870.1,338.9L867.6,341L867.6,342.7L832.5,343.9Z"></path>
  <path id="099957900" fill="#fc8d59" d="M831.9,298.5L837,298.3L837,299.6L839.7,300.8L838.5,302.2L838.6,306.2L833.9,306.4Z"></path>
  <path id="099958000" fill="#ef6548" d="M831.9,298.5L833.9,306.4L831,306.5L830.9,303.8L828.3,303.9L828.1,297.9Z"></path>
  <path id="099958100" fill="#fee8c8" d="M782.1,281.6L814,280.4L830.1,279.8L830.6,293.2L831.9,298.5L828.1,297.9L828.3,303.9L830.9,303.8L831,306.5L832.5,343.9L821.8,344.4L779.2,345.9L778.2,315.6L777.9,312.6L777.2,292.4L782.5,292.2ZM785.8,310.8L791.2,310.7L791.2,313.3L793.9,313.2L793.8,310.6L796.5,310.5L796.3,305.1L785.6,305.5Z"></path>
  <path id="099958200" fill="#fdbb84" d="M785.8,310.8L785.6,305.5L796.3,305.1L796.5,310.5L793.8,310.6L793.9,313.2L791.2,313.3L791.2,310.7Z"></path>
  <path id="099958300" fill="#fee8c8" d="M721.2,283.4L737.1,283L768.9,282L782.1,281.6L782.5,292.2L777.2,292.4L777.9,312.6L778.2,315.6L779.2,345.9L774,346.1L758.6,346.6L726.2,347.5L725.3,315.4L722,315.5Z"></path>
  <path id="101010100" fill="#b30000" d="M357,343L359,344L359,345.4L357,345.3L356.3,343.6Z"></path>
  <path id="101010200" fill="#ef6548" d="M357,341.3L357.2,334.7L362.4,334.7L362.3,342.7L367.7,342.7L367.6,344.8L367.1,344.7L361.7,344.7L359,344L357,343Z"></path>
  <path id="101010301" fill="#d7301f" d="M357.2,334.7L357,341.3L355.9,341.3L355.1,339.2L352.1,339.2L354.4,335.2Z"></path>
  <path id="101010302" fill="#7f0000" d="M352.1,339.2L355.1,339.2L355.9,341.3L354.4,341.3L354.4,342.6L351.9,342.6Z"></path>
  <path id="101010400" fill="#7f0000" d="M351.6,344L351.9,342.6L354.4,342.6L354.4,341.3L355.9,341.3L357,341.3L357,343L356.3,343.6Z"></path>
  <path id="101010500" fill="#b30000" d="M351.6,344.3L351.6,344L356.3,343.6L357,345.3L357,348.6L353.6,347.8L351.2,345.9Z"></path>
  <path id="101010600" fill="#d7301f" d="M351.2,345.9L353.6,347.8L357,348.6L359,348L363.2,348.3L365.9,345L367.1,344.7L367.6,344.8L367.6,350.8L362.7,351L362.1,350.3L360.4,351.9L359.2,351L356.9,352L357,350.7L351.6,350.6Z"></path>
  <path id="101010700" fill="#b30000" d="M357,345.3L359,345.4L359,344L361.7,344.7L367.1,344.7L365.9,345L363.2,348.3L359,348L357,348.6Z"></path>
  <path id="101010800" fill="#fdd49e" d="M321.3,301.8L354.4,302.3L386.3,302.6L386.2,318.7L391.8,318.7L391.6,343L380.3,342.9L378.1,343.3L376.1,344.8L367.6,344.8L367.7,342.7L362.3,342.7L362.4,334.7L357.2,334.7L354.4,335.2L352.1,339.2L351.9,342.6L351.6,344L351.6,344.3L350.6,344.9L347.9,341.5L346.4,342.3L344.6,341L344.1,338.9L342,335.1L342.5,333.9L341.5,330.8L340.1,329.1L339.8,327.3L337.8,326.4L336.9,323.3L333.8,320.3L331.4,319L330,315.3L329.3,307.6L327.1,306.7L325.7,304.3ZM345.7,307.6L347,308.9L352.9,312.9L356.9,312.9L356.9,308.2L354.8,307.7L356.2,305.7L353.4,306.3L354.4,307.7L351.7,307.6L351.7,304.9L349.5,306.3L347,306.3Z"></path>
  <path id="101010900" fill="#ef6548" d="M345.7,307.6L347,306.3L349.5,306.3L351.7,304.9L351.7,307.6L354.4,307.7L353.4,306.3L356.2,305.7L354.8,307.7L356.9,308.2L356.9,312.9L352.9,312.9L347,308.9Z"></path>
  <path id="101011000" fill="#fee8c8" d="M270,236.8L269.7,252.8L291.5,253.2L290.7,291.9L290.7,301.2L321.3,301.8L325.7,304.3L327.1,306.7L329.3,307.6L330,315.3L331.4,319L333.8,320.3L336.9,323.3L337.8,326.4L339.8,327.3L340.1,329.1L332.6,329L329.7,329.8L326.5,328.9L305.5,328.5L302.1,325.8L280.4,325.5L280.6,317.2L274.3,317.1L274.9,284.8L269.4,284.8L243.1,284.3L243.9,252.2L253.7,252.4L254.1,236.4Z"></path>
  <path id="101011200" fill="#fee8c8" d="M356.9,352L359.2,351L360.4,351.9L362.1,350.3L362.7,351L367.6,350.8L367.6,344.8L376.1,344.8L378.1,343.3L380.3,342.9L391.6,343L391.6,350.4L391.3,383L396.8,383.1L396.5,415.2L392.5,415.2L356.7,414.9L357,401.2L356.9,391.9L357.3,386.7L356.7,381.3Z"></path>
  <path id="101011300" fill="#fee8c8" d="M280.4,325.5L302.1,325.8L305.5,328.5L326.5,328.9L329.7,329.8L332.6,329L340.1,329.1L341.5,330.8L342.5,333.9L342,335.1L344.1,338.9L344.6,341L346.4,342.3L347.9,341.5L350.6,344.9L351.6,344.3L351.2,345.9L351.6,350.6L357,350.7L356.9,352L356.7,381.3L357.3,386.7L356.9,391.9L357,401.2L356.7,414.9L330.1,414.6L285,414L285.6,386.2L285.6,381.6L279.4,381.5Z"></path>
  <path id="103959800" fill="#fc8d59" d="M522.7,428L524.1,428.9L524.1,424.7L526.7,425.4L526.7,428.7L529.4,428.6L529.4,434L525.4,433.4Z"></path>
  <path id="103960000" fill="#fee8c8" d="M508.1,415.4L521.3,415.3L539.9,415.2L574.5,414.9L599.4,414.6L603.7,414.5L604.2,446.6L608.1,446.5L608.3,462.3L609,510.3L582.2,510.7L548.5,511.1L513.1,511.3L512.8,447.4L508.3,447.5ZM522.7,428L525.4,433.4L529.4,434L529.4,428.6L526.7,428.7L526.7,425.4L524.1,424.7L524.1,428.9Z"></path>
  <path id="105953400" fill="#fee8c8" d="M73.5,262.8L97.9,263.8L134.9,265.2L164.1,266.1L163.6,282.2L162.6,314.2L153.8,313.9L153.6,319.6L137.7,318.9L137.9,313.4L124.6,312.9L124.4,318.6L71.8,316.5L72.1,310.3L73.8,269.5L73.3,266.6Z"></path>
  <path id="105953500" fill="#fee8c8" d="M22.6,260.6L47.9,261.8L73.5,262.8L73.3,266.6L73.8,269.5L72.1,310.3L71.8,316.5L71,334.5L68.9,334.4L66.5,335.4L65.6,336.9L65.5,340L62.8,340.2L62.5,348.1L57.2,348L56.7,358.7L58.8,359L55.6,361.8L55.7,363.6L59.4,367.1L59.1,368.5L54.5,371.5L51.8,368.4L50.1,367.8L48.6,370L48.3,372.2L48.8,376.3L47.6,379.8L45.4,382L44,382.2L44.1,378.5L40.9,375.6L39.8,376.8L40.8,379.3L39.7,380.6L38.9,383.3L36.5,385.2L32.6,386.2L29.9,382.4L26.9,380.5L24.5,380.9L24.1,382.9L22.1,383.6L20.3,379.5L17.6,378.1L19.6,330.1L20.5,308.4L22.2,267Z"></path>
  <path id="105953600" fill="#fee8c8" d="M71.8,316.5L124.4,318.6L124.6,312.9L137.9,313.4L137.7,318.9L153.6,319.6L153.8,313.9L162.6,314.2L169.6,314.3L168.2,360.3L163.8,357.7L162.6,357.8L158.5,360.3L155.9,359.9L154.7,358.2L150.5,357.1L146,358.1L143.8,357.3L138.6,357.7L136.6,359L135.7,358.5L135.9,355.7L134.1,355L127.8,356.7L122.3,356.7L117.8,361.4L115.7,364.4L119,367.6L117.3,370.3L114.7,369.8L112.5,370.6L111.7,373.3L110.7,373.9L106.8,373.7L102.6,375.6L99.7,376.2L93.8,373.9L89.9,375.9L86.6,379L84.6,379.1L82.7,376.3L81.8,374L76.4,373.3L74.6,371.7L74.6,369.8L78.9,365.6L79.3,363.8L76.9,363.7L74.4,362.3L72.2,358.7L75,356.8L74.2,355L73.9,352.6L73.7,348.7L74.2,345.4L73.5,341.3L73.7,335L71,334.5Z"></path>
  <path id="105953700" fill="#fc8d59" d="M71,334.5L73.7,335L73.5,341.3L74.2,345.4L73.7,348.7L70.4,348.5L67.4,351.1L67.3,352.7L64.9,353.1L64.7,357L63.1,356.9L58.8,359L56.7,358.7L57.2,348L62.5,348.1L62.8,340.2L65.5,340L65.6,336.9L66.5,335.4L68.9,334.4Z"></path>
  <path id="105953800" fill="#7f0000" d="M70.4,348.5L70.3,351.2L67.4,351.1Z"></path>
  <path id="105953900" fill="#b30000" d="M70.4,348.5L73.7,348.7L73.9,352.6L72.7,351.3L70.3,351.2Z"></path>
  <path id="105954100" fill="#d7301f" d="M67.4,351.1L70.3,351.2L72.7,351.3L73.9,352.6L74.2,355L69,359.1L67.1,358.6L64.7,357L64.9,353.1L67.3,352.7Z"></path>
  <path stroke="#000" stroke-opacity="0.3" d="M129.9,505.7L109.1,505.1L66.2,503.4L60.3,503L59.1,503L11.8,500.8M360.1,522.5L359.9,526.9L299.1,526.1L296.5,526.1L295.7,574L253.9,573.3L247.8,573.1L248,567.8L249.2,509.2L241.6,509L242.6,463.5M134.6,761.3L135.4,739.6L136.2,713.2L136.6,699.4L145.7,699.5L161.7,700L200.1,700.8L199.8,715L211.9,715.4L244.9,716.2L263.5,716.6L262.9,744.6L262.5,764.7M535.1,367.5L535,361.1L534.9,318.6L578.2,318.2L614,317.7L614.7,357.4L615.7,358.6L617.9,358.9L621,360.4L622.2,359.5L626,366L630.8,365.9L631,377.1L631.1,381.7L632.4,381.7L633.6,378.7L636.6,376.2L639.4,376.2L639.2,377.9L641.2,383.2L641,387.4L642.1,386.4L646.6,385L648.6,386L650.2,384.3L649.7,382.1L652.5,380.4L652.7,380.5L652.3,381.6L653.6,383.6L654.2,380.7L656.6,378.4L660,376.2L661.2,373.7L664.7,374.6L664.2,376.4L666.1,380.3L666.6,384.8L668.4,385.3L668.6,380.5L669,384.8L670.7,388.2L669.4,389.9L667.1,390.1L665.1,393.2L666,394.1L669.2,390.2L670.3,390.3L672.6,388.6L674,385.3L676.1,384.2L680.3,384.7L681.4,386.2L680.6,388.4L682,392.1L686.4,396.3L685.2,397.4L686.5,400L698.8,400L699.2,412.6L696.8,412.5L667.6,413.2L649,413.7L639.5,414L628.2,414L603.7,414.5L599.4,414.6L574.5,414.9L539.9,415.2L539.7,383.1L535.2,383.1L535.1,367.5M17.6,378.1L20.3,379.5L22.1,383.6L24.1,382.9L24.5,380.9L26.9,380.5L29.9,382.4L32.6,386.2L36.5,385.2L38.9,383.3L39.7,380.6L40.8,379.3L39.8,376.8L40.9,375.6L44.1,378.5L44,382.2L45.4,382L47.6,379.8L48.8,376.3L48.3,372.2L48.6,370L50.1,367.8L51.8,368.4L54.5,371.5L59.1,368.5L59.4,367.1L55.7,363.6L55.6,361.8L58.8,359L63.1,356.9L64.7,357L67.1,358.6L69,359.1L74.2,355L75,356.8L72.2,358.7L74.4,362.3L76.9,363.7L79.3,363.8L78.9,365.6L74.6,369.8L74.6,371.7L76.4,373.3L81.8,374L82.7,376.3L84.6,379.1L86.6,379L89.9,375.9L93.8,373.9L99.7,376.2L102.6,375.6L106.8,373.7L110.7,373.9L111.7,373.3L112.5,370.6L114.7,369.8L117.3,370.3L119,367.6L115.7,364.4L117.8,361.4L122.3,356.7L127.8,356.7L134.1,355L135.9,355.7L135.7,358.5L136.6,359L138.6,357.7L143.8,357.3L146,358.1L150.5,357.1L154.7,358.2L155.9,359.9L158.5,360.3L162.6,357.8L163.8,357.7L168.2,360.3L170.9,361.2L173.5,360.8L175.9,359.3L178.5,360.6L179.3,361.9L178.8,364.8L176.7,366.1L179.7,367.2L183.4,367.3L188.3,369.5L187.6,374.3L189.2,376.5L191,376.9L194.9,375.3L196,377L195.9,380.3L196.5,381.8L201.5,384.3L201.6,385.6L199.7,389.7L196.5,393.6L194.1,395.1L189.7,400.9L188,409.2L188.9,415.1L189.6,416.2L188.7,443.9L171.2,443.3L132,442L129.9,505.7L138.3,506L137.2,535.5L136.1,570.2L111.2,569.4L110.6,584.7L110.2,595.9L108.8,634L90.6,633.4L61,632.2L61.6,615.9L63.6,567.7L56.4,567.4L59.1,503M493.2,203.1L493.3,238.7L493.4,254.8L497.9,254.8L498,286.8L482.1,286.9L466.2,287L466.2,270.9L428.4,270.7L386.6,270.5L386.5,286.6L338.7,286L339.1,253.9L333.5,253.8L334.2,202.3M2.9,694.2L9.4,694.5L43.9,696.1L49.9,696.3L89,697.9L129.7,699.3L136.6,699.4M270.7,201.4L270,236.8L254.1,236.4L253.7,252.4L243.9,252.2L243.1,284.3L232.6,284.1L179.5,282.7L163.6,282.2L164.1,266.1L164.6,250.1L158,249.9L159,217.7L159.7,198.4M923.6,628.8L897.4,630.1L862.6,631.7L859.5,631.8L817.4,633.4L811.7,633.6L774.4,634.8L767.2,635L730.1,636L715.9,636.4L714.5,588.2L714.1,572.1L710.6,572.2L709.4,526.8L709.3,524.2L725.2,523.7L756.7,522.6L770.2,522.3L772.7,522.3L804.6,521.2L820.6,520.8L836.4,520.2L854.9,519.5L900.1,517.5L913.8,517M763.3,197.8L763.5,207.4L763.9,212.6L764.4,231.3L765.1,249.9L767.8,250.1L768.9,282L737.1,283L721.2,283.4L689.3,284.2L654.7,285L641.5,285.2L640.9,253.2L637.3,253.2L636.9,237.2L636.3,201.2M646.6,765.6L646.2,733.5L645.7,702.3L681.2,701.6L726.5,700.4L742.8,699.9L769.1,699.1L772.7,699.1L773.6,731L774.6,763M164.1,266.1L134.9,265.2L97.9,263.8L73.5,262.8L47.9,261.8L22.6,260.6M189.6,416.2L191.7,419.5L199.3,424.6L204.3,424.1L207.5,425L210.3,427.6L215.2,428.8L217.3,430.2L221,429.2M248,567.8L205.4,566.8L200.1,566.6L199.9,572L159.7,570.9L140.3,570.3L136.1,570.2M699.2,412.6L699.3,418.9L699.7,419.8L699.8,426.1L699.5,426.1L700,444.7L703.1,444.6L703.5,460.3M608.3,462.3L640.1,461.7L687.6,460.7L703.5,460.3L704.9,508.4L685.1,508.9L645.5,509.7L613.8,510.3L609,510.3L608.3,462.3L608.1,446.5L604.2,446.6L603.7,414.5M507.9,639.3L528.8,639.3L528.9,655.7L529.1,703.1L529.2,703.8L534.1,703.8L534.4,766.8M453.3,766.7L453.9,762.5L450.8,756.4L446.9,754.6L445.5,751.9L441,745.4L439.8,740.1L440,735.2L438.6,732.9L438.3,729.9L440.1,725L442.9,720.3L445,718L447.1,713.2L447.4,710.3L445.7,707.9L444.6,704.4L447.3,699.5L448.5,695.6L448.3,689.3L447.2,685.9L443.3,677.4L442.3,673.1L443.8,665.4L444.8,663.1L446.8,661.9L449,659.4L449.2,657.9L443.8,650.5L444.5,649.2L446.5,649.6L447.1,647.9L446.2,646.7L438.9,643.4L434.3,639.3M61,632.2L36.8,631.2L36.1,647.6L5.1,646.2M903.3,437.4L886,438.2L843.7,440L830.6,440.5L779.8,442.4L779.2,427.3L778.8,410.3L777.6,378.1L775,378.2L774.6,364.8L774,346.1L779.2,345.9L821.8,344.4L832.5,343.9L867.6,342.7M263.5,716.6L263.8,702.2L257.6,702L257.8,688.2L258.3,638L252.6,637.8L252.9,621.8L285.1,622.5L300.7,622.7L300.5,638.7L328.1,639.2L352.3,639.5L353.6,639.6L353.1,687.3L385,687.6L384.8,703.6L387.8,703.7L386.3,705.2L385.3,704L383.6,706.2L379.9,705.3L379.4,708.4L377.8,708.6L376.2,710.9L377.5,711.2L378.1,714.1L375,717.1L374.1,716.5L372.6,718.5L370.7,719.3L369.5,718.7L369.1,720.6L366.5,720.6L365.6,722L366.8,725.9L365.8,726.6L366.6,728.7L363.8,727.1L361.6,730.5L359.2,729.6L358.5,731L357.4,730.3L356.7,731.8L355.6,730.9L352.5,731.3L351,732.7L353.1,734.5L352.5,736.5L350,737.4L349.2,738.9L346.9,739.3L347.6,740.7L344.4,742.7L341.4,741L338.7,742.6L337.7,744.9L336,744.5L332.1,746.4L330.3,745.6L327,747.8L328.5,750.4L326.4,751.3L322.3,749.8L323.1,752.4L320.9,752.5L319.7,753.8L318.1,752.7L318,751L316.5,751.6L314.9,753.6L314.6,752.1L312.4,751.8L311,748.5L308,749.8L308,752.5L303.8,753L301.2,751.2L298.5,750.8L297.6,748.5L296.3,748.3L295.1,749.8L294.7,747.4L292.6,749.4L290.9,747.8L287.6,749.3L285,748L283.3,748.8L282.4,746.7L280.6,745.9L282.8,745.6L282.1,741.3L280.4,742.9L276.2,742L275.7,744.3L274.3,743.2L272.6,743.5L272.8,744.7L270.7,742.4L269.2,743L268.2,745.3L266.7,744.1L266,745.7L263.9,745.8L262.9,744.6M703.1,444.6L724.3,444.1L767.1,442.8L767.2,443.9L768.7,495.2L769,506.6L772.2,506.5L772.7,522.3M709.3,524.2L708.9,508.3L704.9,508.4M145.7,699.5L146,683.5L146.6,667.4L147,651.8L147.3,635.3L151.5,635.4L196.7,636.7L213.8,637.1L252.6,637.8M503.2,511.4L513.1,511.3L548.5,511.1L582.2,510.7L582.8,558.6L583,574.6L587.4,574.5L587.5,582.7L587.5,594.4L587.8,617.1L587.8,638.9L579,639L561.4,639L549.7,639.2L528.8,639.3M767.2,635L767.8,653.7L768.6,683.1L769.1,699.1M645.7,702.3L641.3,702.3L640.9,683.7L640.6,658.8L640.2,638.2L661,637.8L699.9,636.9L715.9,636.4M587.8,638.9L625.5,638.5L640.2,638.2M641.3,702.3L549.4,703.8L534.1,703.8M396.5,415.2L396.8,383.1L391.3,383L391.6,350.4L391.6,343L391.8,318.7L386.2,318.7L386.3,302.6L386.5,286.6M482.1,286.9L482.2,318.9L487,318.9L487.2,361.9L487.2,383.3L492.1,383.3L492.2,415.5L470.4,415.6L444.3,415.5M360.1,522.5L356.7,520L352.4,518.2L349,517.4L348.8,514L347.7,511.4L347.3,503.9L345.5,502.4L343.1,499.2L342.1,497L341,490.9L337.9,486.5L337.6,483.1L340.1,480L344.3,477.6L346.3,475.6L346.2,474L343.2,472L340.6,468.9L338.3,467.1L336.1,467.3L332.9,468.6L330.5,468.4L328.8,469.4L324.1,470.9L320.6,472.4L316.4,473.3L312.6,473.4L307.2,471.5L304.5,471.4L300.2,473L291.3,478.8L288.7,479.2L284.5,477.4L281.4,477.1L277.5,473.7L272.7,470.9L269.2,470.6L265.8,471.2L264.3,470.3L265.4,466.8L263.6,464.3L260.4,464.9L258.7,464L248.3,465.4L245.3,464.8L242.6,463.5L239.5,459.1L237,456.9L235.4,454.2L235.4,448L235.9,444.6L236.1,435.3L233.5,433.2L232.7,430.2L236.5,428.8L236.6,425.2L227.4,421.4L224.6,423.3L222.3,428.2L221,429.2L221.5,412.7L234.2,413L285,414L330.1,414.6L356.7,414.9L392.5,415.2L396.5,415.2L444.3,415.5L444.2,447.6L433.4,447.5L433.2,456.9L433.2,479.2L433.1,511.4L447.4,511.5L486.4,511.5L503.2,511.4L503.1,536.3L503.2,543L503.3,575.1L508.3,575.2L508.1,612.4L507.9,639.3L486.4,639.4L434.3,639.3L434.6,636.4L436.9,633.5L437.1,631.7L436,630.9L432.6,632L429.2,634.5L426.4,635.3L423.9,634.1L424.6,631.5L423.4,628.5L419.6,629.6L418.3,628.7L417.1,624.2L419.6,623.4L419.5,620.4L416.2,620.6L414.6,620.2L412.5,618L412.1,615.9L411.9,614.8L414.5,610.2L414.7,607.7L413.6,605.3L412.7,604.6L412.6,604.6L411.9,603.8L408.9,600.1L407.4,596.6L403.9,590.8L403.4,589.1L403.8,586L403.3,580.8L400.2,578.3L399.9,574.9L400.9,573.5L403.3,572.2L405,571.2L406.7,569L407.2,564.7L406.5,563L401.4,557.5L399.9,554.4L399.6,548.9L399,546L396.5,542.8L394.2,539.6L393,535.6L393,534L395.2,528.5L395,525.6L391.9,521.6L387.6,518.6L384.7,517.5L381.3,516.9L376.9,517.5L374,518.8L369.6,519.7L367.8,525.6L365.2,525.6L360.1,522.5M295.7,574L309.4,574.2L356.3,574.8L399.9,574.9M443.3,677.4L440.6,677.5L440.9,679.4L438.9,677.8L438.6,679L433.7,681.4L432.6,680.2L431.1,680.7L430.4,682.9L428.1,683.8L428.5,685L426.4,686L426.6,684.3L424.6,684.1L424,682.4L423.2,683.8L420.5,682.9L419.9,684L415.9,684.5L414.7,685.3L409.8,683.3L409.2,682L407.9,684.4L406.1,683.9L406.5,680.8L404.3,681.8L404.5,683.2L401.5,683.3L400.2,686.5L398.8,687L398.2,689.6L398.6,691.6L396.1,692L396.5,693.4L393.7,695.3L393.1,697.3L391.7,697.9L389.8,696.5L388.9,697.2L389.3,699.4L391.4,699.9L390.3,701.4L388.9,700.9L387.8,703.7M252.9,621.8L253.8,573.4L253.9,573.3M243.1,284.3L269.4,284.8L274.9,284.8L274.3,317.1L280.6,317.2L280.4,325.5L279.4,381.5L285.6,381.6L285.6,386.2L285,414M168.2,360.3L169.6,314.3L162.6,314.2L163.6,282.2M698.8,400L698.3,380.4L710.8,380.1L711,379.7L710.2,348.1L726.2,347.5L758.6,346.6L774,346.1M779.8,442.4L767.1,442.8M862.3,278.5L830.1,279.8L814,280.4L782.1,281.6L768.9,282M498,286.8L529.9,286.6L577.7,286.1L578.2,318.2M539.9,415.2L521.3,415.3L508.1,415.4L492.2,415.5M614,317.7L642.1,317.2L641.5,285.2M721.2,283.4L722,315.5L725.3,315.4L726.2,347.5M865.2,695.7L864,666.3L862.6,631.7M874.6,759.4L874.1,748.8L870.1,748.2L868.3,703.6L867.9,695.5L865.2,695.7L838.7,696.7L838.5,696.7L817.1,697.6L785.1,698.7L772.7,699.1M386.3,302.6L354.4,302.3L321.3,301.8L290.7,301.2L290.7,291.9L291.5,253.2L269.7,252.8L270,236.8M572.7,202.4L573.1,238.2L573.3,254.2L577.3,254.1L577.7,286.1M508.1,415.4L508.3,447.5L512.8,447.4L513.1,511.3M108.8,634L147.3,635.3M830.6,440.5L831.7,469.8L833,504.5L835.8,504.5L836.4,520.2M582.2,510.7L609,510.3M811.7,633.6L809.4,569.3L806.3,569.4L805.8,553.4L804.6,521.2M433.1,511.4L423.6,511.4L423.5,542.8L396.5,542.8"></path>

  <g transform="translate(540,150)" font-size="10" font-family="sans-serif" text-anchor="middle">
    <rect height="8" x="0" width="6" fill="#fff7ec"></rect>
    <rect height="8" x="6" width="13" fill="#fee8c8"></rect>
    <rect height="8" x="19" width="23" fill="#fdd49e"></rect>
    <rect height="8" x="42" width="42" fill="#fdbb84"></rect>
    <rect height="8" x="84" width="49" fill="#fc8d59"></rect>
    <rect height="8" x="133" width="56" fill="#ef6548"></rect>
    <rect height="8" x="189" width="78" fill="#d7301f"></rect>
    <rect height="8" x="267" width="110" fill="#b30000"></rect>
    <rect height="8" x="377" width="23" fill="#7f0000"></rect>
    <text x="0" y="-6" fill="#000" text-anchor="start" font-weight="bold">Population per square mile</text>
    <g transform="translate(6,0)">
      <line stroke="#000" y2="13" x1="0.5" x2="0.5"></line>
      <text fill="#000" y="16" x="0.5" dy="0.71em">1</text>
    </g>
    <g transform="translate(19,0)">
      <line stroke="#000" y2="13" x1="0.5" x2="0.5"></line>
      <text fill="#000" y="16" x="0.5" dy="0.71em">10</text>
    </g>
    <g transform="translate(42,0)">
      <line stroke="#000" y2="13" x1="0.5" x2="0.5"></line>
      <text fill="#000" y="16" x="0.5" dy="0.71em">50</text>
    </g>
    <g transform="translate(84,0)">
      <line stroke="#000" y2="13" x1="0.5" x2="0.5"></line>
      <text fill="#000" y="16" x="0.5" dy="0.71em">200</text>
    </g>
    <g transform="translate(133,0)">
      <line stroke="#000" y2="13" x1="0.5" x2="0.5"></line>
      <text fill="#000" y="16" x="0.5" dy="0.71em">500</text>
    </g>
    <g transform="translate(189,0)">
      <line stroke="#000" y2="13" x1="0.5" x2="0.5"></line>
      <text fill="#000" y="16" x="0.5" dy="0.71em">1,000</text>
    </g>
    <g transform="translate(267,0)">
      <line stroke="#000" y2="13" x1="0.5" x2="0.5"></line>
      <text fill="#000" y="16" x="0.5" dy="0.71em">2,000</text>
    </g>
    <g transform="translate(377,0)">
      <line stroke="#000" y2="13" x1="0.5" x2="0.5"></line>
      <text fill="#000" y="16" x="0.5" dy="0.71em">4,000</text>
    </g>
  </g>
</svg>
